<svg xmlns="http://www.w3.org/2000/svg" viewBox="0 0 515.89 515.57"><defs><style>.a{fill:#a40;fill-rule:evenodd;}</style></defs><path class="a" d="M446.79,137.16c1.38.56,3.25-2.84,5.17-3.71,3.81-1.74,8-2.66,12-4.1,3.69-1.35,7.63-2.32,11-4.27,3-1.76,8.45-4.28,9.29-5.93,1-2,.41-11-1.17-15.4-3.17-8.79-7.62-18.44-14.24-25.11C458.74,68.48,445.37,61,433,53.28a447.09,447.09,0,0,0-42-23C377.4,23.78,363.52,17.5,349.2,13c-14.55-4.58-29.77-7.5-44.86-9.95C290.13.73,281.73.54,267.36.2c-19-.45-38-.08-57,.48S181,2.66,162.61,6.6a99.28,99.28,0,0,0-27.76,10.19c-10.41,5.49-16.42,9.43-24.89,17-9.52,8.49-14.83,13.66-23,23.54-6.2,7.51-12.68,14.81-18.56,22.57C63,87.05,58,94.57,53.09,102.09c-4.32,6.6-8.55,13.28-12.41,20.15-3.77,6.71-7.09,13.69-10.49,20.61C27.14,149,24,155.2,21.36,161.57c-3.43,8.32-6.73,16.75-9.31,25.36a305.87,305.87,0,0,0-7.87,32A268.91,268.91,0,0,0,.84,247.11a189.58,189.58,0,0,0-.72,23.46,295.42,295.42,0,0,0,3.1,30.1,154.17,154.17,0,0,0,4.77,23A291.73,291.73,0,0,0,21.6,359.91a265.51,265.51,0,0,0,18.13,32.22,236.86,236.86,0,0,0,39.13,46c7,6.48,14.64,12.36,22.19,18.25,4.3,3.36,8.79,6.5,13.36,9.48,5.61,3.65,11.3,7.24,17.18,10.42,7.4,4,14.92,7.87,22.67,11.14,9.83,4.16,20,7.62,30.06,11.14,7.33,2.56,14.7,5.09,22.19,7.11,9.85,2.64,19.8,5.11,29.83,6.87a205.89,205.89,0,0,0,25.37,2.8,267.48,267.48,0,0,0,27.16-.19c12-.62,24-1.79,36-3.08,12.2-1.32,24.44-2.63,36.51-4.74a185.57,185.57,0,0,0,23.14-5.69,127.93,127.93,0,0,0,17.18-6.87,160.57,160.57,0,0,0,18.38-10.19,155.82,155.82,0,0,0,16-12.32c5.65-4.86,11.05-10.05,16.23-15.41a196.17,196.17,0,0,0,13.36-15.16c6.26-8,12.39-16.14,17.89-24.65a224.17,224.17,0,0,0,12.17-21.8,179.14,179.14,0,0,0,8.83-20.14A156.86,156.86,0,0,0,510,354.93c1.58-7.5,2.62-15.14,3.58-22.75s1.91-15,2.15-22.51c.32-10.41.07-20.87-.48-31.28-.49-9.18-1.37-18.37-2.63-27.48-1.21-8.82-2.92-17.59-4.77-26.31-1.65-7.79-3.53-15.56-5.72-23.22-2.9-10.11-5.83-28.09-9.55-30.09-3.24-1.75-35.83,4.44-53.68,7.11-12.3,1.83-24.52,4.18-36.75,6.39-11.79,2.14-23.64,4-35.31,6.64-12.91,2.94-25.71,6.47-38.42,10.19-9.72,2.84-19.3,6.17-28.87,9.48-8.24,2.85-16.43,5.87-24.58,9-3.78,1.46-8.57,6.26-11.21,4.74-4-2.27-6.12-10.57-8.59-16.11a222.16,222.16,0,0,1-8.11-21.33,208.71,208.71,0,0,1-5.49-20.14c-2-9-3.4-18.16-5-27.25-2.53-14.29-4.67-28.65-7.4-42.89-1-5.27-2.51-10.44-3.82-15.64-.36-1.43-.44-3.11-1.19-4.27a4,4,0,0,0-2.62-1.65c-2.2-.28-4.62.25-6.92.47-2.63.25-5.26.56-7.88,1-2.23.32-4.45,1.09-6.68,1.18-1.74.07-5.23-1-7-1.24-.88-.13-.13,9.75.78,14.51,1.56,8.2,3.49,16.36,5.72,24.41,1.83,6.57,4,13,6.45,19.43,2.75,7.29,6,14.41,9.06,21.56q4.54,10.48,9.31,20.85c3.76,8.25,7.82,16.35,11.45,24.65,3.21,7.34,6.18,14.8,9.07,22.27.69,1.77,2.86,4.49,1.67,5.45-3.51,2.83-10.4,4.26-15.75,5.93-8.33,2.59-16.81,4.8-25.29,6.87-10.29,2.51-20.7,4.49-31,6.87q-15.78,3.65-31.49,7.58c-9,2.27-18,4.61-27,7.11-3.22.9-6.43,1.88-9.54,3.08-5.08,2-10.16,4-15,6.4-5.86,2.89-11.5,6.25-17.18,9.48-3.07,1.74-8.43,3.16-9.07,5.45-.55,2,3.84,4.78,5.49,7.34s3.1,5.49,4.53,8.3c1.83,3.59,3.19,7.49,5.25,10.9a14.82,14.82,0,0,0,3.34,3.32,9,9,0,0,0,3.1,2.13,23.76,23.76,0,0,0,7.16.47,35.72,35.72,0,0,0,7.64-1.42,76.38,76.38,0,0,0,11.21-4A123.26,123.26,0,0,0,127.06,308c7.09-4.53,13.86-9.6,20.76-14.45,5.67-4,11-8.54,16.94-12.09,4.65-2.77,9.84-4.62,14.79-6.87,6.35-2.88,12.66-5.85,19.09-8.53,8.36-3.48,16.77-6.88,25.29-9.95,7.71-2.78,15.54-5.4,23.39-7.58,1.21-.34,3-.86,3.81,0,2.79,3,4.91,7.58,6.92,11.61a182.5,182.5,0,0,1,9.07,20.38c3.24,9.12,5.56,18.59,8.11,28,1.67,6.12,3.13,12.3,4.54,18.48,1.85,8.11,3.3,16.32,5.25,24.41,1.47,6.13,3.28,12.18,5,18.24,1.46,5.15,2.77,10.36,4.53,15.4,1.9,5.46,4.15,10.81,6.44,16.12,1.53,3.54,2.41,9.58,5,10.42s7.45-3.25,11-5.21a37.48,37.48,0,0,0,6.92-4.74,5.33,5.33,0,0,0,1.19-2.6,15,15,0,0,0,.72-4.27c0-1.05-.81-2-1-3.08-.8-5.73-1-11.57-1.91-17.3-1.34-8.64-2.84-17.3-4.77-25.83-1.81-8-4-15.9-6.44-23.69s-5.43-15.77-8.59-23.46c-3-7.39-6.48-14.64-10-21.8-3.38-6.82-7.23-13.39-10.74-20.14-2.85-5.5-8.84-12.24-8.35-16.59.31-2.75,7.12-3.26,10.74-4.74,4.09-1.68,8.17-3.45,12.4-4.74,6.43-2,13-3.56,19.57-5,5.91-1.27,11.9-2.3,17.89-3.08,9.28-1.2,18.59-2.25,27.92-2.84,11.75-.75,23.54-.9,35.32-1.18,17.65-.43,35.33-.21,53-.95,10.59-.45,24.49-6,31.73-2.61,4.37,2.05,2.36,12.6,3.1,19,1.25,10.62,2.47,21.31,2.87,32a246.6,246.6,0,0,1-.72,25.35c-.39,5.87-1.21,11.73-2.15,17.54-1.37,8.48-2.69,17-4.77,25.35-2.22,8.89-5.05,17.66-8.11,26.3-3,8.42-6.29,16.78-10,24.89a190.56,190.56,0,0,1-9.55,17.53C450,411,446.65,416.25,443,421.28A165.83,165.83,0,0,1,431.76,435a242.79,242.79,0,0,1-17.9,18.25,172.35,172.35,0,0,1-18.61,14.22,167.74,167.74,0,0,1-15.75,8.76c-3.43,1.8-7,3.38-10.5,5a100.39,100.39,0,0,1-9.3,4c-5,1.69-10.13,3.07-15.27,4.26-7.74,1.81-15.53,3.58-23.39,4.74-8.13,1.21-16.36,1.8-24.57,2.37-7.7.54-15.45,1.24-23.15.95a235.83,235.83,0,0,1-27.67-2.84,166.89,166.89,0,0,1-19.09-4.5c-5.8-1.63-11.54-3.58-17.18-5.69-8.28-3.1-16.58-6.22-24.58-9.95-9.26-4.33-18.27-9.24-27.2-14.22-8.64-4.82-17.1-10-25.53-15.17-9.3-5.72-18.5-11.61-27.68-17.53-6.25-4-12.7-7.84-18.61-12.32A79.7,79.7,0,0,1,75,405.4C70,399.77,64.85,394,60.73,387.63A271.59,271.59,0,0,1,44.5,358.25a191.73,191.73,0,0,1-8.83-22.51A241,241,0,0,1,29,312a198,198,0,0,1-3.34-20.85c-1-9-1.65-18-2.15-27-.3-5.52-.4-11.07-.23-16.59.22-7.35.56-14.74,1.43-22,1.27-10.71,2.85-21.43,5-32,1.42-7,3.65-13.79,5.72-20.61,2-6.53,4-13.08,6.45-19.43,2.86-7.39,6-14.69,9.54-21.81a221.2,221.2,0,0,1,11-19.9c4.34-6.93,9.09-13.65,14.07-20.14A192,192,0,0,1,89.12,77a204.19,204.19,0,0,1,15-14.69,191.57,191.57,0,0,1,18.14-14,190.6,190.6,0,0,1,18.85-10.9c5-2.59,10.27-4.74,15.51-6.87,6-2.45,12.12-5,18.37-6.87a126.62,126.62,0,0,1,15.27-3.08c6.25-1,12.53-2.19,18.85-2.61a173.68,173.68,0,0,1,20.28,0,187.78,187.78,0,0,1,19.8,2.14c7.62,1.23,15.2,2.85,22.67,4.74,6.28,1.58,12.47,3.61,18.61,5.68,6.74,2.28,13.44,4.72,20.05,7.35,7.47,3,14.89,6.09,22.19,9.48,8.69,4,17.23,8.41,25.77,12.79,8.09,4.16,16,8.58,24.09,12.8,5.34,2.79,11,5,16.08,8.21a95.93,95.93,0,0,1,13.51,10.51c3.91,3.6,7.23,7.84,10.74,11.85,3.33,3.81,6.8,7.53,9.78,11.61,3.31,4.53,6,9.48,9.07,14.22,1.67,2.6,3,7,5,7.81Z"/></svg>