<svg xmlns="http://www.w3.org/2000/svg" viewBox="0 0 630.97 598.91"><defs><style>.cls-1{fill:#a40;fill-rule:evenodd;}.cls-2{fill:#f60;}</style></defs><g id="Ebene_2" data-name="Ebene 2"><g id="Ebene_1-2" data-name="Ebene 1"><g id="layer1"><path id="path977" class="cls-1" d="M541.09,137.16c1.38.56,3.25-2.84,5.17-3.71,3.81-1.74,8-2.66,12-4.11,3.69-1.34,7.63-2.31,11-4.27,3-1.76,8.44-4.28,9.29-5.93,1-2,.41-11-1.18-15.39C574.2,95,569.75,85.3,563.12,78.63,553,68.48,539.67,61,527.25,53.28a449.48,449.48,0,0,0-42-23C471.7,23.77,457.82,17.5,443.5,13,429,8.41,413.73,5.49,398.64,3,384.42.73,376,.54,361.66.2c-19-.45-38-.09-57,.47s-29.38,2-47.72,5.92a99.28,99.28,0,0,0-27.76,10.19c-10.41,5.5-16.42,9.43-24.89,17-9.51,8.49-14.83,13.65-23,23.54-6.2,7.51-12.69,14.81-18.56,22.57-5.42,7.17-10.4,14.69-15.32,22.22-4.32,6.6-8.55,13.27-12.41,20.14s-7.1,13.7-10.5,20.62c-3,6.19-6.21,12.35-8.83,18.72-3.42,8.32-6.73,16.74-9.31,25.35a305.87,305.87,0,0,0-7.87,32,269.09,269.09,0,0,0-3.34,28.2,193.5,193.5,0,0,0-.72,23.46,295.23,295.23,0,0,0,3.1,30.09,154.56,154.56,0,0,0,4.77,23,291.54,291.54,0,0,0,13.6,36.25A269.12,269.12,0,0,0,134,392.14a236.86,236.86,0,0,0,39.13,46c7,6.48,14.64,12.36,22.19,18.25,4.3,3.36,8.79,6.5,13.36,9.48,5.61,3.66,11.29,7.24,17.18,10.43,7.4,4,14.92,7.87,22.67,11.14,9.83,4.15,20,7.61,30.06,11.14,7.33,2.56,14.7,5.09,22.19,7.11,9.84,2.65,19.79,5.11,29.83,6.87a205.89,205.89,0,0,0,25.37,2.8,267.48,267.48,0,0,0,27.16-.19c12-.62,24-1.79,36-3.09,12.2-1.32,24.44-2.63,36.51-4.74a185.57,185.57,0,0,0,23.14-5.69A128.46,128.46,0,0,0,496,494.75a137.41,137.41,0,0,0,34.36-22.51c5.64-4.86,11-10.05,16.23-15.4a194.22,194.22,0,0,0,13.36-15.17c6.26-8,12.39-16.14,17.9-24.64A227.5,227.5,0,0,0,590,395.23a179.94,179.94,0,0,0,8.83-20.14A158.5,158.5,0,0,0,604.32,355c1.59-7.5,2.62-15.14,3.58-22.75s1.91-15,2.15-22.51c.32-10.41.07-20.87-.48-31.28-.48-9.18-1.37-18.38-2.62-27.49-1.21-8.82-2.93-17.59-4.77-26.3-1.65-7.8-3.53-15.56-5.73-23.22-2.9-10.11-5.82-28.09-9.54-30.09-3.24-1.75-35.84,4.44-53.69,7.11-12.29,1.84-24.51,4.19-36.75,6.4-11.79,2.13-23.64,4-35.31,6.63-12.91,3-25.7,6.47-38.42,10.19-9.72,2.84-19.3,6.17-28.87,9.48-8.24,2.85-16.43,5.88-24.58,9-3.79,1.45-8.57,6.26-11.21,4.74-4-2.27-6.11-10.57-8.59-16.11a221.15,221.15,0,0,1-8.11-21.33c-2.17-6.6-4-13.35-5.49-20.14-2-9-3.4-18.16-5-27.25-2.53-14.29-4.67-28.65-7.4-42.89-1-5.27-2.51-10.44-3.82-15.64-.36-1.43-.44-3.1-1.19-4.27a4,4,0,0,0-2.62-1.66c-2.2-.27-4.62.25-6.92.47-2.63.25-5.26.56-7.87.95-2.24.33-4.45,1.1-6.68,1.18-1.74.07-5.23-1-7-1.24-.88-.13-.13,9.76.77,14.51,1.56,8.2,3.49,16.36,5.73,24.41,1.82,6.57,4,13.05,6.44,19.43,2.76,7.29,6,14.41,9.07,21.56q4.54,10.47,9.31,20.85c3.76,8.24,7.82,16.35,11.45,24.64,3.21,7.34,6.17,14.8,9.07,22.27.69,1.77,2.86,4.49,1.67,5.45-3.51,2.83-10.4,4.26-15.75,5.92-8.33,2.6-16.81,4.8-25.29,6.87-10.29,2.51-20.7,4.49-31,6.87q-15.78,3.64-31.5,7.58c-9,2.27-18,4.61-27,7.11-3.22.9-6.43,1.88-9.54,3.08-5.08,2-10.15,4-15,6.4-5.86,2.89-11.5,6.25-17.18,9.48-3.06,1.74-8.43,3.17-9.07,5.45-.55,2,3.84,4.78,5.49,7.35s3.1,5.49,4.53,8.29c1.83,3.59,3.19,7.49,5.25,10.9a14.82,14.82,0,0,0,3.34,3.32,8.66,8.66,0,0,0,3.1,2.13,23.42,23.42,0,0,0,7.16.47,35.72,35.72,0,0,0,7.64-1.42,76.38,76.38,0,0,0,11.21-4A123.26,123.26,0,0,0,221.37,308c7.1-4.54,13.86-9.6,20.76-14.45,5.67-4,11-8.54,16.94-12.08,4.65-2.78,9.84-4.62,14.79-6.87,6.34-2.88,12.66-5.85,19.09-8.53,8.36-3.48,16.77-6.88,25.29-9.95,7.71-2.78,15.54-5.39,23.38-7.58,1.22-.34,3-.85,3.82,0,2.79,3,4.91,7.59,6.92,11.61a184.35,184.35,0,0,1,9.07,20.38c3.24,9.12,5.56,18.6,8.11,28,1.67,6.12,3.12,12.3,4.53,18.48,1.85,8.11,3.3,16.32,5.25,24.41,1.47,6.13,3.29,12.18,5,18.25,1.46,5.15,2.78,10.35,4.53,15.4,1.9,5.46,4.15,10.81,6.44,16.11,1.53,3.54,2.41,9.58,5,10.43s7.45-3.25,11-5.21a37.14,37.14,0,0,0,6.92-4.74A5.32,5.32,0,0,0,419.4,399a15,15,0,0,0,.72-4.27c0-1.05-.81-2-.95-3.08-.81-5.73-1-11.57-1.91-17.3-1.34-8.65-2.84-17.3-4.77-25.83-1.81-8-4-15.9-6.44-23.7s-5.43-15.76-8.59-23.46c-3-7.39-6.48-14.64-10-21.8-3.37-6.82-7.23-13.39-10.74-20.14-2.85-5.49-8.84-12.23-8.35-16.59.31-2.75,7.12-3.26,10.74-4.74,4.1-1.68,8.18-3.45,12.41-4.74,6.43-2,13-3.56,19.57-5,5.91-1.27,11.9-2.3,17.9-3.08,9.27-1.2,18.59-2.25,27.92-2.84,11.75-.75,23.54-.9,35.31-1.18,17.65-.43,35.33-.21,53-.95,10.6-.44,24.49-6,31.73-2.61,4.37,2.05,2.36,12.6,3.1,19,1.24,10.63,2.46,21.31,2.86,32a241.06,241.06,0,0,1-.72,25.35c-.39,5.87-1.21,11.72-2.15,17.54-1.37,8.49-2.69,17-4.77,25.35-2.22,8.89-5.05,17.66-8.11,26.3-3,8.42-6.28,16.78-10,24.88a189.18,189.18,0,0,1-9.54,17.53c-3.19,5.35-6.59,10.61-10.26,15.64A165.83,165.83,0,0,1,526.08,435a244.7,244.7,0,0,1-17.9,18.25,172.35,172.35,0,0,1-18.61,14.22,170.12,170.12,0,0,1-15.75,8.77c-3.43,1.8-7,3.37-10.5,5a100.57,100.57,0,0,1-9.31,4c-5,1.69-10.13,3.07-15.27,4.27-7.74,1.8-15.53,3.57-23.38,4.74-8.13,1.21-16.37,1.8-24.58,2.37-7.7.54-15.45,1.23-23.14.95A236.22,236.22,0,0,1,340,494.74a167.39,167.39,0,0,1-19.09-4.5c-5.8-1.63-11.53-3.57-17.18-5.69-8.27-3.1-16.58-6.22-24.58-9.95-9.26-4.32-18.27-9.24-27.2-14.22-8.64-4.82-17.1-10-25.53-15.17-9.3-5.72-18.5-11.62-27.68-17.54-6.25-4-12.7-7.84-18.61-12.32a79.62,79.62,0,0,1-10.74-10c-5.09-5.63-10.2-11.41-14.32-17.77a271.59,271.59,0,0,1-16.23-29.38A191.73,191.73,0,0,1,130,335.74a240.18,240.18,0,0,1-6.68-23.7A198,198,0,0,1,120,291.19c-1-9-1.65-18-2.15-27-.3-5.52-.41-11.06-.24-16.59.23-7.35.56-14.74,1.43-22,1.28-10.71,2.86-21.43,5-32,1.42-7,3.65-13.79,5.73-20.62,2-6.53,4-13.08,6.44-19.43,2.86-7.39,6.05-14.69,9.54-21.8a221.2,221.2,0,0,1,11-19.9c4.34-6.93,9.1-13.65,14.08-20.14A192,192,0,0,1,183.42,77a204.19,204.19,0,0,1,15-14.69,168.56,168.56,0,0,1,37-24.88c5-2.59,10.27-4.75,15.51-6.87,6.06-2.46,12.12-5,18.37-6.87a126.62,126.62,0,0,1,15.27-3.08c6.25-1,12.54-2.19,18.85-2.61a169.4,169.4,0,0,1,20.28,0,185.15,185.15,0,0,1,19.8,2.13c7.61,1.23,15.19,2.85,22.67,4.74,6.28,1.59,12.47,3.62,18.61,5.69q10.11,3.41,20,7.35c7.47,3,14.9,6.09,22.19,9.48,8.69,4,17.24,8.42,25.77,12.8,8.09,4.15,16,8.58,24.1,12.8,5.33,2.79,11,5,16.08,8.21a95.93,95.93,0,0,1,13.51,10.51c3.9,3.6,7.23,7.84,10.74,11.85,3.33,3.81,6.81,7.53,9.78,11.61,3.31,4.53,6,9.48,9.07,14.22,1.68,2.58,3,7,5,7.79Z"/><path id="path2516" class="cls-2" d="M187.34,597.34c-2.71-2.13-2.53-4.76.65-9.7,2.23-3.46,2.62-4.7,2.57-8.22a40.61,40.61,0,0,0-1.31-8.62c-1-3.55-1.78-4.83-3.8-6.19-5-3.34-8-2.17-14.22,5.52-2.84,3.51-3.06,4.06-2.32,6,2.4,6.31-3.14,13-10.75,13-4.22,0-6.56-2.29-7.09-6.95-.63-5.6,2.53-9.94,7.94-10.88,2.71-.47,3.92-1.44,9.48-7.62,3.5-3.9,6.37-7.64,6.37-8.33,0-1.69-3.83-6.86-6.27-8.45-3.84-2.51-5.85-2.38-8.69.56-2.32,2.41-3,2.68-6.55,2.68-3.32,0-4.36-.36-6.42-2.19s-2.43-2.6-2.32-5.69a11.67,11.67,0,0,1,9.67-11.19c3.69-.79,6.05.59,8.17,4.78A10.67,10.67,0,0,0,168,541.5c5.45,2.76,8.93,3.11,13,1.3,5.54-2.45,11-11.33,11-17.83,0-1.67-.82-3.4-2.63-5.56-3.1-3.71-3.33-6.23-.91-9.83,3-4.43,9.56-6.36,13.94-4.09,5.78,3,4.95,13.47-1.27,15.91l-2.89,1.13.29,6.12c.43,9.3.4,9.23,4.95,10.55,14.1,4.1,32.57,5.61,52.64,4.31,7.61-.49,14.68-1.21,15.7-1.6,8.44-3.21,5.06-25.68-8.53-56.67-4.73-10.8-7-14.06-15.2-22.22-10.39-10.3-19.56-16.67-39.55-27.46-34-18.35-63.85-32-82.17-37.56-23.07-7-28.5-8.79-36-11.85-44.4-18.08-73.59-48.34-85.12-88.23-6.73-23.3-7.12-53.45-1-80.77,4.44-19.92,11.45-39,21.72-59.25,7.22-14.2,13.28-24,29.36-47.44C73.07,84.68,74.91,82.65,76.61,87.12c1.26,3.32-1.4,14.58-10.18,43.09C48.8,187.45,42,223.38,43.08,253.91c.79,22.58,5,38,14.34,52C63.55,315.18,69,319.71,86.6,330q21.45,12.58,67.64,29.17c56.45,20.28,77.81,30.58,100.75,48.62l5.53,4.35,3.09-1.65c1.7-.91,7-5.55,11.72-10.31,21.19-21.25,36.5-50.81,35-67.52-.5-5.49-.12-5.05-10.22-11.92-17.76-12.09-51.26-28.59-58-28.59-5.7,0-11.34,7-11.34,14,0,3.27-.35,4.25-2.19,6.17-3.39,3.54-6.41,4.23-10.51,2.42-7.71-3.41-8.51-12.48-1.51-17.27a7.14,7.14,0,0,1,5.75-1.39A8.29,8.29,0,0,0,227.9,295c6.42-3.82,4.89-10.28-4.52-19.12-6.18-5.8-8.37-6.65-14.87-5.75-6.21.86-7.68.36-10.29-3.47s-2.06-9.94.91-12.49c4.24-3.65,11.74-1.55,14.61,4.09,2.67,5.24,11,9.21,16.93,8.09a11.14,11.14,0,0,0,5.41-3c2.13-2.13,2.49-3,2.49-6.08q0-7.31-6.77-13c-5.39-4.54-5-8.61,1-11.36,4.34-2,6.94-1.83,9.25.48,1.69,1.69,1.87,2.32,1.4,5.06-.29,1.72-.71,4.23-.92,5.58-.53,3.27,2.69,9.86,5.67,11.62,5.07,3,11.6,1,18-5.43,3-3,3.79-4.41,4.16-7.12,1.11-8.1,4.07-11.11,9.39-9.51,4.19,1.25,6.86,4.19,6.86,7.56,0,4.61-4.19,8.58-8.26,7.83-3-.56-18.58,12.57-17.77,15,.38,1.15,8.49,1.45,15.64.59,4.56-.55,6.64-1.23,9.38-3,4.42-2.93,7.59-3,10.27-.37,3.65,3.65,3.28,9.24-.85,12.79-3.25,2.79-8.18,2-11.71-1.92a4.66,4.66,0,0,0-2.73-1.58c-2.52,0-11.62,3.16-14.78,5.13-7.58,4.73-4.16,8,13.32,12.82C291.48,291.78,306,297,315,301.23c22,10.39,29.29,21.69,24.54,37.81-.73,2.48-5,12.09-9.42,21.38-10.77,22.45-12.62,28.67-11.79,39.6.72,9.42,1.44,11,6,13.21,11.38,5.52,39.51,5.51,69.54,0,36.79-6.78,66-19.64,71.35-31.41,2.33-5.14,2.16-5.35-4.79-5.91-7.57-.61-17.78-3.06-22.31-5.35S429.21,363.9,427.5,360c-1.89-4.27-2.88-11.8-2.9-22.1,0-22.62-3.87-41.79-9.62-48.16-3.53-3.9-7.48-5.84-11.93-5.84-3.42,0-3.72.17-6.22,3.56-3,4-5.77,4.87-9.67,2.85-5.87-3-5.23-11.71,1.07-14.34,2.66-1.11,3.37-1,8.29,1.28,2.51,1.16,3.49,1.27,5.42.59,4.7-1.64,7.4-9.45,5-14.48-1.75-3.68-4.8-5.85-6.72-4.77a11,11,0,0,1-4.48.7c-4.18-.14-6.42-2.72-6.42-7.37,0-2.88.4-3.81,2.55-6s3.14-2.55,5.56-2.55c4.44,0,7.6,4.07,6.92,8.92-.23,1.61,7.45,9,9.93,9.5a23.85,23.85,0,0,0,6.28,0l4.08-.51-.39-3.13c-.21-1.72-.59-5-.83-7.38-.4-3.84-.66-4.33-2.6-5-2.7-.94-4.53-3.68-5.05-7.57s.89-6.08,4.72-7.89a8,8,0,0,1,11.57,7.27,11.88,11.88,0,0,1-1.21,5c-1.13,1.92-1.11,2.53.44,9.3,1.63,7.16,1.68,7.25,3.88,7.25,3.48,0,6.23-1.86,8.17-5.51,1.53-2.88,1.65-3.64.88-5.33-1.3-2.84-1.11-6,.44-7.39a13.87,13.87,0,0,1,10.4-3.17c5.54.83,7.65,5.38,5.2,11.24-1.42,3.39-4.41,5.24-8.63,5.31-3.42.06-3.44.07-4.31,3.39-1.16,4.39-1.22,11.4-.12,13.8a5.64,5.64,0,0,0,3.69,2.76c2.64.79,3,.69,5.67-1.51,4.24-3.5,8.12-3,10.38,1.38s1,9.79-2.73,11.7c-4.1,2.12-8.07,1.08-10-2.62-.85-1.65-1.76-2.22-3.95-2.48-4.61-.55-5.36,0-6.69,4.54-2.16,7.44-.5,26.17,4.73,53.19,2.18,11.28,6.3,15.28,16.87,16.36,6.12.63,42.26-1.26,45.11-2.35,1.88-.72,1.57-4.35-.59-6.92a39.74,39.74,0,0,1-4.25-8.12A26.06,26.06,0,0,1,503,325.17c-.07-13.37,6.46-20.14,23.17-24,21.61-5,33.14-14.51,35.8-29.56s28.41-32.64,49.76-34l6.8-.43,1.57,3.66c7,16.33,9,45.56,4,57a6.93,6.93,0,0,1-4.26,4.25c-7.26,2.94-13.38,11.76-15.6,22.5-1.22,5.89-.6,9.88,3.3,21.19,2.66,7.72,3,12.52,1.09,16.5-2.59,5.46-12.3,11.43-25.83,15.89l-6.09,2L572,386.46a96.49,96.49,0,0,0-14,26.45c-2,6-2.49,8.86-3,17.78-.35,5.86-1,14.81-1.37,19.88-.74,9.27-1.18,21.81-.95,27l.13,2.8,4.78-1.73c8.94-3.24,15.59-8,19.3-13.87,1.14-1.8,1.88-3.81,1.65-4.5s-2.26-3-4.52-5.13c-3.42-3.24-4-4.18-3.56-5.63a12.12,12.12,0,0,1,.63-1.78s1.22-.95,2.59-2.06c3.11-2.52,6.06-2.59,8.65-.19,2.24,2.07,2.24,2.06,2.31,8.46.05,4.07.32,4.94,2.13,6.75s2.71,2.07,5.44,2c3.66-.08,5.76-1.47,7.62-5.07a4.14,4.14,0,0,0,.23-4.27,7.92,7.92,0,0,1,2.72-8.71c4-2.6,11.54,1.26,11.54,5.88,0,1.75-1,2.81-5.68,6.3-5.17,3.82-8.56,7.68-8.57,9.73,0,2.53,1.94,3.35,9,3.78,6.2.37,7.49.23,10-1.08,2.32-1.22,3.28-1.36,5.08-.73,2.68.94,3.69,2.63,3.69,6.23,0,5.12-3.5,9.39-7.7,9.39-1.61,0-2.42-.57-3.4-2.39-2.73-5.11-4-5.86-10.24-5.86-3.11,0-5.66.27-5.66.61a27.85,27.85,0,0,1-2.52,4.79c-2.3,3.82-2.44,4.38-1.58,6.41,1.1,2.62,2.55,3.32,5.6,2.71,6.91-1.38,9.71,9.39,3.5,13.46-2.7,1.77-4.5,1.6-7.2-.66-1.76-1.48-2.31-2.56-2.31-4.55,0-5.56-3.16-7.76-11.18-7.76h-5.25l-.78,2.81a25.34,25.34,0,0,0-.79,5.46c0,2.17.42,2.9,2.32,4a7.56,7.56,0,0,1,1.53,12.15c-2.46,2.47-4.61,3.31-8.45,3.31s-5.61-1-6.59-3.94c-1.06-3.21,0-6.88,2.83-9.89,1.86-2,2.23-3.08,2.6-7.83l.43-5.53-3.12.5c-4.81.77-8.82,2.83-19.73,10.13-5.53,3.7-11.46,7.15-13.17,7.67-2.9.87-3.2.82-4.49-.78-2.2-2.72-2.9-6.4-3.68-19.59-1.72-28.9-2.92-41.25-4.14-42.62-.12-.14-3.88,2.42-8.35,5.68-40.54,29.57-78,44-126.25,48.67-21.33,2.05-52.59.71-79-3.39-6.33-1-9-1.14-9.35-.55s-.75,10.61-1,22.58c-.61,25.42-1.82,34-5.61,39.78-3.06,4.66-19.71,4.28-49.78-1.15-2.27-.41-9.86-1-16.88-1.22-13.26-.49-18.77.18-19.62,2.38-1.46,3.8,3.35,9.27,9.89,11.27,5.53,1.69,9.76,4.51,10.94,7.31,1.79,4.25-2.31,9.25-8.25,10-2.47.33-3.28.09-4.84-1.47-2.11-2.11-3.48-6.28-3.49-10.57,0-3.44-2-6.49-5.71-8.79-2.47-1.52-3-1.59-6.66-.77-4.62,1-4.86,1.5-4.87,9.44,0,5.23.69,7.34,3.92,11.78a12.84,12.84,0,0,1,1.78,4.16c.4,2,.1,2.74-1.81,4.65s-2.81,2.28-6.36,2.28c-3,0-4.62-.43-6.06-1.57ZM610.52,342.77c-3.39-1.84-4.79-5.85-4.75-13.59,0-6.17.28-7.33,2.48-11.81,3-6.17,10.23-14,12.88-14,2.92,0,6.52,2.65,8.26,6.07,1.25,2.46,1.59,4.46,1.58,9.34q-.06,19.89-13.74,23.94c-4.61,1.37-4.24,1.37-6.71,0Zm-84.41-46.43a7.78,7.78,0,0,1-3.19-2.58c-1.23-2.29-1-10.39.39-13.29,1.75-3.7,6.47-7.62,12.73-10.59,9.64-4.58,17.51-4.07,21.39,1.37,1.33,1.87,1.43,2.51.7,4.72-1.18,3.56-7.73,12.69-10.78,15-6.08,4.64-16.83,7.35-21.24,5.35Z"/></g></g></g></svg>