<svg xmlns="http://www.w3.org/2000/svg" viewBox="0 0 1594.59 598.9"><defs><style>.cls-1{fill:#a40;}.cls-1,.cls-2{fill-rule:evenodd;}.cls-2,.cls-4{fill:#d45500;stroke:#000;}.cls-2{stroke-miterlimit:11.34;stroke-width:14.29px;}.cls-3{fill:#f60;}.cls-4{stroke-linejoin:round;stroke-width:14.25px;}</style></defs><g id="Ebene_2" data-name="Ebene 2"><g id="Ebene_1-2" data-name="Ebene 1"><g id="layer1"><path id="path977" class="cls-1" d="M541.06,137.16c1.38.56,3.26-2.84,5.17-3.71,3.81-1.74,8-2.66,12-4.1,3.69-1.35,7.63-2.32,11-4.27,3-1.76,8.44-4.28,9.28-5.93,1-2,.41-11-1.17-15.4-3.16-8.79-7.62-18.44-14.24-25.11C553,68.48,539.64,61,527.22,53.28a445.84,445.84,0,0,0-42-23c-13.56-6.52-27.44-12.8-41.76-17.3-14.55-4.58-29.77-7.5-44.86-9.95C384.4.73,376,.54,361.63.2c-19-.45-38-.08-57,.48s-29.38,2-47.72,5.92a99.28,99.28,0,0,0-27.76,10.19c-10.41,5.49-16.42,9.43-24.89,17-9.52,8.49-14.83,13.66-23,23.54-6.19,7.51-12.68,14.81-18.55,22.57-5.43,7.17-10.4,14.69-15.33,22.21-4.32,6.6-8.54,13.28-12.41,20.15-3.77,6.71-7.09,13.69-10.49,20.61-3,6.19-6.21,12.35-8.83,18.72-3.42,8.32-6.73,16.75-9.31,25.36a311,311,0,0,0-7.87,32,268.91,268.91,0,0,0-3.34,28.19,191.55,191.55,0,0,0-.72,23.46,298.29,298.29,0,0,0,3.1,30.1,152.94,152.94,0,0,0,4.78,23,291.68,291.68,0,0,0,13.6,36.26A265.51,265.51,0,0,0,134,392.13a236.86,236.86,0,0,0,39.13,46c7,6.48,14.64,12.36,22.19,18.25,4.31,3.36,8.79,6.5,13.36,9.48,5.61,3.65,11.3,7.24,17.18,10.42,7.4,4,14.93,7.87,22.67,11.14,9.83,4.16,20,7.62,30.07,11.14,7.33,2.56,14.69,5.09,22.19,7.11,9.84,2.64,19.79,5.11,29.82,6.87a205.89,205.89,0,0,0,25.37,2.8,267.48,267.48,0,0,0,27.16-.19c12-.62,24-1.79,36-3.08,12.2-1.32,24.44-2.63,36.51-4.74a185.57,185.57,0,0,0,23.14-5.69A127.93,127.93,0,0,0,496,494.74a158.89,158.89,0,0,0,18.38-10.19,155.82,155.82,0,0,0,16-12.32c5.65-4.86,11-10.05,16.23-15.41a196.17,196.17,0,0,0,13.36-15.16c6.26-8,12.39-16.14,17.9-24.65A226.21,226.21,0,0,0,590,395.21a179.14,179.14,0,0,0,8.83-20.14,156.86,156.86,0,0,0,5.49-20.14c1.59-7.5,2.62-15.14,3.58-22.75s1.91-15,2.15-22.51c.32-10.41.07-20.87-.48-31.28-.48-9.18-1.37-18.37-2.62-27.48-1.22-8.82-2.93-17.59-4.78-26.31-1.65-7.79-3.53-15.56-5.72-23.22-2.9-10.11-5.83-28.09-9.55-30.09-3.24-1.75-35.83,4.44-53.68,7.11-12.3,1.83-24.51,4.18-36.75,6.39-11.78,2.14-23.64,4-35.31,6.64-12.91,2.94-25.71,6.47-38.42,10.19-9.72,2.84-19.3,6.17-28.87,9.48-8.24,2.85-16.43,5.87-24.58,9-3.78,1.46-8.57,6.26-11.21,4.74-4-2.27-6.11-10.57-8.59-16.11a224.84,224.84,0,0,1-8.11-21.33,208.71,208.71,0,0,1-5.49-20.14c-2-9-3.4-18.16-5-27.25-2.53-14.29-4.67-28.65-7.4-42.89-1-5.27-2.5-10.44-3.81-15.64-.37-1.43-.45-3.11-1.2-4.27a4,4,0,0,0-2.62-1.65c-2.2-.28-4.62.25-6.92.47-2.63.25-5.26.56-7.88,1-2.23.32-4.44,1.09-6.68,1.18-1.74.07-5.23-1-7-1.24-.87-.13-.13,9.75.78,14.51,1.56,8.2,3.49,16.36,5.73,24.41,1.82,6.57,4,13,6.44,19.43,2.76,7.29,6,14.41,9.07,21.56,3,7,6.14,13.93,9.3,20.85,3.76,8.25,7.82,16.35,11.45,24.65,3.22,7.34,6.18,14.8,9.07,22.27.69,1.77,2.86,4.49,1.67,5.45-3.5,2.83-10.4,4.26-15.75,5.93-8.33,2.59-16.8,4.8-25.29,6.87-10.28,2.51-20.7,4.49-31,6.87q-15.78,3.65-31.49,7.58c-9,2.27-18,4.61-27,7.11-3.21.9-6.42,1.88-9.54,3.08-5.08,2-10.15,4-15,6.4-5.86,2.89-11.5,6.25-17.18,9.48-3.07,1.74-8.43,3.16-9.07,5.45-.55,2,3.84,4.78,5.49,7.34s3.1,5.49,4.53,8.3c1.83,3.59,3.19,7.49,5.25,10.9a14.82,14.82,0,0,0,3.34,3.32,9,9,0,0,0,3.1,2.13,23.76,23.76,0,0,0,7.16.47,35.61,35.61,0,0,0,7.64-1.42,76.38,76.38,0,0,0,11.21-4A123.26,123.26,0,0,0,221.33,308c7.1-4.53,13.86-9.6,20.76-14.45,5.67-4,11-8.54,16.94-12.09,4.65-2.77,9.84-4.62,14.79-6.87,6.35-2.88,12.66-5.85,19.09-8.53,8.36-3.48,16.77-6.88,25.29-9.95,7.71-2.78,15.54-5.4,23.39-7.58,1.22-.34,3-.86,3.81,0,2.8,3,4.91,7.58,6.92,11.61a182.5,182.5,0,0,1,9.07,20.38c3.24,9.12,5.56,18.59,8.11,28,1.67,6.12,3.13,12.3,4.54,18.48,1.85,8.11,3.3,16.32,5.25,24.41,1.47,6.13,3.29,12.18,5,18.24,1.46,5.15,2.77,10.36,4.53,15.4,1.9,5.46,4.15,10.81,6.44,16.12,1.53,3.54,2.41,9.58,5,10.42s7.45-3.25,11-5.21a37.14,37.14,0,0,0,6.92-4.74,5.33,5.33,0,0,0,1.19-2.6,15,15,0,0,0,.72-4.27c0-1.05-.81-2-1-3.08-.8-5.73-1-11.57-1.91-17.3-1.33-8.64-2.84-17.3-4.77-25.83-1.8-8-4-15.9-6.44-23.69s-5.43-15.77-8.59-23.46c-3-7.39-6.48-14.64-10-21.8-3.37-6.82-7.23-13.39-10.74-20.14-2.85-5.5-8.84-12.24-8.35-16.59.31-2.75,7.12-3.26,10.74-4.74,4.09-1.68,8.18-3.45,12.41-4.74,6.42-2,13-3.56,19.56-5,5.91-1.27,11.9-2.3,17.9-3.08,9.27-1.2,18.58-2.25,27.91-2.84,11.75-.75,23.54-.9,35.32-1.18,17.65-.43,35.33-.21,53-.95,10.6-.45,24.49-6,31.73-2.61,4.37,2.05,2.36,12.6,3.1,19,1.25,10.62,2.47,21.31,2.87,32A246.6,246.6,0,0,1,582.1,294c-.39,5.87-1.21,11.73-2.15,17.54-1.37,8.48-2.69,17-4.77,25.35-2.22,8.89-5,17.66-8.11,26.3-3,8.42-6.28,16.78-10,24.89a190.56,190.56,0,0,1-9.55,17.53c-3.19,5.35-6.58,10.61-10.26,15.64A165.83,165.83,0,0,1,526,435a242.79,242.79,0,0,1-17.9,18.25,172.35,172.35,0,0,1-18.61,14.22,167.74,167.74,0,0,1-15.75,8.76c-3.43,1.8-7,3.38-10.49,5a100.57,100.57,0,0,1-9.31,4c-5,1.69-10.13,3.07-15.27,4.26-7.74,1.81-15.53,3.58-23.38,4.74-8.13,1.21-16.37,1.8-24.58,2.37-7.7.54-15.45,1.24-23.15.95a235.83,235.83,0,0,1-27.67-2.84,167.39,167.39,0,0,1-19.09-4.5c-5.8-1.63-11.54-3.58-17.18-5.69-8.27-3.1-16.58-6.22-24.58-9.95-9.26-4.33-18.26-9.24-27.2-14.22-8.64-4.82-17.1-10-25.53-15.17-9.3-5.72-18.5-11.61-27.68-17.53-6.25-4-12.7-7.84-18.61-12.32a79.7,79.7,0,0,1-10.74-10c-5.08-5.63-10.19-11.41-14.31-17.77a271.59,271.59,0,0,1-16.23-29.38,195.29,195.29,0,0,1-8.83-22.51,243.75,243.75,0,0,1-6.68-23.7,198,198,0,0,1-3.34-20.85c-1-9-1.65-18-2.14-27-.31-5.52-.41-11.07-.24-16.59.22-7.35.56-14.74,1.43-22,1.28-10.71,2.85-21.43,5-32,1.42-7,3.65-13.79,5.73-20.61,2-6.53,4-13.08,6.44-19.43,2.86-7.39,6-14.69,9.54-21.81a223.71,223.71,0,0,1,11-19.9c4.34-6.93,9.1-13.65,14.08-20.14A191.85,191.85,0,0,1,183.39,77a204.19,204.19,0,0,1,15-14.69,168.52,168.52,0,0,1,37-24.89c5-2.59,10.27-4.74,15.51-6.87,6.05-2.45,12.12-5,18.37-6.87a126.62,126.62,0,0,1,15.27-3.08c6.25-1,12.54-2.19,18.85-2.61a173.68,173.68,0,0,1,20.28,0,188.25,188.25,0,0,1,19.81,2.14c7.61,1.23,15.19,2.85,22.66,4.74,6.29,1.58,12.47,3.61,18.61,5.68,6.74,2.28,13.44,4.72,20.05,7.35,7.47,3,14.9,6.09,22.19,9.48,8.69,4,17.23,8.41,25.77,12.79,8.09,4.16,16,8.58,24.1,12.8,5.33,2.79,11,5,16.07,8.21a95.93,95.93,0,0,1,13.51,10.51c3.91,3.6,7.23,7.84,10.74,11.85,3.33,3.81,6.81,7.53,9.78,11.61,3.31,4.53,6,9.48,9.07,14.22,1.67,2.6,3,7,5,7.81Z"/><path id="path2546" class="cls-2" d="M805.34,312.89c.65.26,1.52-1.33,2.42-1.74,1.78-.81,3.75-1.24,5.61-1.92a30.81,30.81,0,0,0,5.13-2c1.41-.82,3.94-2,4.34-2.77.48-.94.19-5.14-.55-7.19-1.48-4.11-3.56-8.62-6.65-11.74-4.71-4.74-11-8.25-16.76-11.85A209.69,209.69,0,0,0,779.25,263a146.57,146.57,0,0,0-19.51-8.08,150.73,150.73,0,0,0-21-4.65,108.6,108.6,0,0,0-17.28-1.33c-8.87-.21-17.77,0-26.65.22a105.25,105.25,0,0,0-22.29,2.77,46.46,46.46,0,0,0-13,4.76A50.75,50.75,0,0,0,648,264.58a87.15,87.15,0,0,0-10.74,11c-2.89,3.51-5.93,6.92-8.67,10.55-2.53,3.35-4.86,6.86-7.16,10.38-2,3.08-4,6.2-5.8,9.41s-3.31,6.4-4.9,9.63c-1.42,2.9-2.9,5.77-4.13,8.75-1.6,3.89-3.14,7.83-4.35,11.85a142.32,142.32,0,0,0-3.67,14.95A126.5,126.5,0,0,0,597,364.26a91.21,91.21,0,0,0-.33,11,138.57,138.57,0,0,0,1.45,14.07A72.61,72.61,0,0,0,600.31,400,138,138,0,0,0,606.66,417,125.18,125.18,0,0,0,615.14,432,109.15,109.15,0,0,0,624,443.76a111.73,111.73,0,0,0,9.47,9.75c3.29,3,6.84,5.77,10.37,8.52,2,1.57,4.11,3,6.24,4.43,2.63,1.71,5.28,3.38,8,4.87,3.46,1.87,7,3.68,10.59,5.21,4.6,1.94,9.34,3.56,14.05,5.2,3.43,1.2,6.87,2.38,10.37,3.32,4.6,1.24,9.25,2.39,13.94,3.21a94.39,94.39,0,0,0,11.85,1.31,124.92,124.92,0,0,0,12.69-.09c5.62-.29,11.23-.83,16.82-1.44s11.42-1.23,17.06-2.21a87,87,0,0,0,10.81-2.66,59.22,59.22,0,0,0,8-3.21,63.88,63.88,0,0,0,16.06-10.52c2.63-2.27,5.16-4.69,7.58-7.2,2.19-2.26,4.26-4.64,6.24-7.08,2.84-3.51,6.15-7.33,7.68-11s-6.27-10.63-18.27,1.5c-1.94,2-3.38,4.38-5.24,6.42a115.92,115.92,0,0,1-8.36,8.52,66.66,66.66,0,0,1-16.06,10.74c-1.6.84-3.26,1.58-4.9,2.33-1.44.65-2.86,1.38-4.35,1.88-2.34.79-4.73,1.43-7.14,2-3.61.85-7.25,1.67-10.92,2.22s-7.65.84-11.49,1.11a102.83,102.83,0,0,1-10.81.44A110,110,0,0,1,711.36,480a77.54,77.54,0,0,1-8.92-2.1c-2.71-.77-5.39-1.67-8-2.66-3.87-1.45-7.75-2.91-11.49-4.65-4.32-2-8.53-4.32-12.71-6.65s-8-4.66-11.92-7.08c-4.35-2.67-8.65-5.43-12.94-8.2-2.92-1.88-5.93-3.66-8.69-5.75a36.89,36.89,0,0,1-5-4.65,65.77,65.77,0,0,1-6.69-8.31,126.31,126.31,0,0,1-7.58-13.73,89,89,0,0,1-4.13-10.52,111.54,111.54,0,0,1-3.12-11.07,91.41,91.41,0,0,1-1.56-9.74c-.48-4.19-.77-8.41-1-12.62-.15-2.58-.2-5.17-.12-7.76.11-3.43.27-6.88.67-10.29.6-5,1.34-10,2.34-14.95.67-3.26,1.71-6.45,2.68-9.63s1.86-6.11,3-9.08c1.34-3.45,2.83-6.87,4.46-10.19a103.85,103.85,0,0,1,5.13-9.3c2-3.24,4.25-6.38,6.58-9.41a89.56,89.56,0,0,1,5.91-6.87,96.67,96.67,0,0,1,7-6.86,87.54,87.54,0,0,1,8.47-6.53,89.61,89.61,0,0,1,8.81-5.1c2.35-1.21,4.8-2.22,7.25-3.21,2.83-1.15,5.66-2.35,8.58-3.21a59.38,59.38,0,0,1,7.14-1.44c2.92-.49,5.86-1,8.81-1.22a80.86,80.86,0,0,1,9.47,0,87.06,87.06,0,0,1,9.26,1c3.55.58,7.1,1.33,10.59,2.21,2.94.75,5.82,1.69,8.7,2.66q4.73,1.59,9.36,3.43c3.49,1.39,7,2.85,10.37,4.43,4.06,1.89,8.05,3.94,12,6,3.78,1.94,7.5,4,11.26,6,2.49,1.3,5.15,2.34,7.51,3.84a44.76,44.76,0,0,1,6.32,4.91,71.17,71.17,0,0,1,5,5.53c1.56,1.78,3.18,3.52,4.58,5.43,1.54,2.12,2.82,4.43,4.23,6.64.78,1.22,1.4,3.28,2.34,3.66Z"/><path id="path2516" class="cls-3" d="M187.31,597.34c-2.71-2.13-2.54-4.75.64-9.69,2.23-3.46,2.62-4.7,2.57-8.23a40.61,40.61,0,0,0-1.31-8.62c-1-3.54-1.78-4.82-3.8-6.19-5-3.34-8-2.17-14.22,5.53-2.84,3.51-3.05,4.06-2.32,6,2.4,6.31-3.14,13-10.75,13-4.22,0-6.56-2.3-7.09-7-.63-5.6,2.54-9.93,7.95-10.88,2.71-.47,3.92-1.44,9.48-7.62,3.5-3.89,6.37-7.64,6.37-8.32,0-1.7-3.83-6.86-6.27-8.46-3.84-2.51-5.85-2.38-8.69.56-2.32,2.41-3,2.68-6.55,2.68-3.32,0-4.36-.36-6.42-2.19s-2.43-2.6-2.31-5.69a11.68,11.68,0,0,1,9.67-11.19c3.69-.79,6.05.59,8.18,4.78A10.6,10.6,0,0,0,168,541.5c5.45,2.76,8.93,3.11,13,1.29,5.54-2.45,11-11.32,11-17.83,0-1.67-.82-3.4-2.63-5.56-3.09-3.71-3.33-6.23-.9-9.83,3-4.43,9.55-6.36,13.94-4.09,5.78,3,4.95,13.47-1.27,15.91l-2.88,1.14.28,6.12c.44,9.3.4,9.23,4.95,10.55,14.1,4.1,32.58,5.62,52.64,4.32,7.61-.5,14.68-1.22,15.69-1.6,8.45-3.21,5.06-25.68-8.53-56.68-4.73-10.8-7-14.06-15.2-22.22-10.39-10.3-19.56-16.67-39.55-27.46-34-18.35-63.85-32-82.17-37.56-23.07-7-28.49-8.8-36-11.85-44.4-18.08-73.59-48.34-85.11-88.24-6.74-23.29-7.12-53.45-1-80.76,4.44-19.92,11.45-39,21.72-59.25,7.22-14.2,13.28-24,29.36-47.45C73.07,84.67,74.91,82.64,76.61,87.12c1.27,3.32-1.39,14.58-10.17,43.08C48.81,187.44,42,223.37,43.09,253.9c.78,22.58,5,38,14.33,52C63.56,315.17,69,319.69,86.6,330q21.47,12.58,67.64,29.17c56.45,20.28,77.81,30.58,100.75,48.62l5.53,4.35,3.09-1.66c1.7-.91,7-5.55,11.72-10.3,21.19-21.26,36.5-50.81,35-67.52-.5-5.49-.12-5-10.22-11.92-17.76-12.1-51.26-28.6-58-28.59-5.7,0-11.34,7-11.34,14,0,3.27-.34,4.25-2.18,6.17-3.39,3.54-6.41,4.23-10.52,2.42-7.71-3.41-8.5-12.48-1.5-17.27a7.14,7.14,0,0,1,5.74-1.4A8.26,8.26,0,0,0,227.9,295c6.42-3.82,4.9-10.28-4.52-19.12-6.17-5.79-8.37-6.64-14.87-5.74-6.21.85-7.68.36-10.29-3.47s-2.06-9.94.91-12.49c4.24-3.65,11.74-1.55,14.62,4.08,2.67,5.24,11,9.21,16.93,8.1a11.14,11.14,0,0,0,5.41-3c2.13-2.13,2.49-3,2.49-6.08q0-7.3-6.77-13c-5.39-4.55-5-8.62,1-11.36,4.33-2,6.94-1.83,9.25.48,1.69,1.69,1.87,2.32,1.4,5.06-.29,1.72-.7,4.23-.92,5.58-.53,3.27,2.68,9.86,5.66,11.62,5.08,3,11.6,1,18-5.43,3-3,3.79-4.41,4.17-7.12,1.11-8.1,4.07-11.1,9.38-9.51,4.19,1.25,6.86,4.19,6.86,7.55,0,4.62-4.19,8.59-8.26,7.83-3-.56-18.58,12.58-17.77,15,.37,1.15,8.48,1.45,15.64.59,4.55-.55,6.64-1.23,9.38-3,4.42-2.93,7.59-3.05,10.26-.37,3.66,3.65,3.29,9.24-.84,12.79-3.25,2.79-8.18,2-11.72-1.92a4.66,4.66,0,0,0-2.73-1.58c-2.51,0-11.62,3.16-14.78,5.13-7.58,4.73-4.16,8,13.32,12.82C291.47,291.76,306,297,315,301.21c21.95,10.39,29.29,21.69,24.54,37.81-.73,2.48-5,12.1-9.42,21.38-10.77,22.45-12.62,28.67-11.79,39.6.72,9.42,1.44,11,6,13.21,11.38,5.52,39.51,5.51,69.54,0,36.79-6.78,66-19.64,71.35-31.41,2.34-5.14,2.17-5.35-4.79-5.92-7.57-.61-17.78-3.05-22.31-5.35s-8.88-6.64-10.59-10.52c-1.89-4.27-2.88-11.8-2.9-22.09,0-22.63-3.87-41.79-9.62-48.16-3.52-3.9-7.48-5.84-11.92-5.84-3.42,0-3.73.17-6.23,3.56-3,4.05-5.77,4.87-9.67,2.85-5.87-3-5.23-11.71,1.07-14.34,2.66-1.11,3.37-1,8.3,1.27,2.5,1.16,3.48,1.27,5.41.6,4.7-1.64,7.4-9.45,5-14.49-1.74-3.68-4.79-5.84-6.71-4.77a10.82,10.82,0,0,1-4.48.7c-4.18-.15-6.42-2.72-6.42-7.37,0-2.88.4-3.81,2.55-6s3.14-2.55,5.56-2.55c4.44,0,7.6,4.07,6.92,8.92-.22,1.61,7.45,8.95,9.93,9.5a24.29,24.29,0,0,0,6.28,0l4.08-.51-.38-3.13c-.21-1.72-.59-5-.84-7.38-.4-3.84-.66-4.33-2.59-5-2.7-.94-4.53-3.68-5-7.57-.5-3.74.89-6.08,4.72-7.89a8,8,0,0,1,11.57,7.27,11.88,11.88,0,0,1-1.21,5c-1.14,1.92-1.11,2.53.43,9.3,1.63,7.16,1.68,7.25,3.88,7.25,3.48,0,6.23-1.86,8.17-5.51,1.53-2.88,1.65-3.64.88-5.34-1.3-2.84-1.11-6,.44-7.38a13.83,13.83,0,0,1,10.4-3.17c5.54.83,7.64,5.38,5.2,11.24-1.42,3.39-4.42,5.23-8.63,5.31-3.42.06-3.44.07-4.31,3.39-1.16,4.39-1.22,11.4-.13,13.8a5.67,5.67,0,0,0,3.7,2.77c2.64.79,3,.69,5.67-1.51,4.24-3.5,8.12-3,10.38,1.38s1,9.79-2.73,11.7c-4.1,2.12-8.07,1.07-10-2.62-.86-1.65-1.76-2.22-3.95-2.48-4.61-.54-5.36,0-6.69,4.55-2.16,7.44-.5,26.16,4.73,53.19,2.18,11.28,6.3,15.28,16.87,16.36,6.12.63,42.26-1.26,45.11-2.36,1.88-.72,1.57-4.35-.59-6.91a40.54,40.54,0,0,1-4.25-8.12A26.06,26.06,0,0,1,503,325.15c-.08-13.38,6.45-20.14,23.16-24,21.62-5,33.15-14.51,35.8-29.56s28.41-32.65,49.76-34l6.8-.43,1.57,3.67c7,16.33,9,45.55,4,57a6.93,6.93,0,0,1-4.26,4.25c-7.25,2.94-13.37,11.76-15.6,22.5-1.22,5.89-.6,9.87,3.3,21.18,2.67,7.72,3,12.52,1.09,16.51-2.59,5.45-12.29,11.42-25.83,15.88l-6.09,2L572,386.44a96.13,96.13,0,0,0-14,26.46c-2,6-2.49,8.86-3,17.78-.34,5.86-1,14.81-1.37,19.88-.74,9.26-1.18,21.81-.95,27l.13,2.8,4.78-1.73c8.93-3.25,15.59-8,19.3-13.87,1.14-1.8,1.88-3.82,1.65-4.5s-2.26-3-4.51-5.13c-3.42-3.25-4-4.18-3.57-5.63a12.58,12.58,0,0,1,.63-1.77s1.22-.95,2.59-2.07c3.11-2.52,6.06-2.58,8.65-.18,2.23,2.07,2.23,2.06,2.3,8.45.05,4.07.32,4.94,2.13,6.75s2.72,2.07,5.44,2c3.67-.08,5.76-1.47,7.62-5.06a4.12,4.12,0,0,0,.23-4.27,7.91,7.91,0,0,1,2.72-8.72c4-2.6,11.54,1.26,11.54,5.88,0,1.75-1,2.81-5.68,6.31-5.17,3.82-8.56,7.67-8.57,9.73,0,2.53,1.94,3.35,9,3.77,6.2.38,7.49.24,10-1.07,2.31-1.22,3.28-1.36,5.07-.74,2.69.94,3.69,2.63,3.69,6.23,0,5.12-3.5,9.39-7.7,9.39-1.62,0-2.42-.57-3.4-2.39-2.73-5.11-4-5.86-10.24-5.86-3.11,0-5.66.27-5.66.6a27.47,27.47,0,0,1-2.52,4.79c-2.3,3.82-2.44,4.38-1.58,6.41,1.1,2.62,2.55,3.32,5.6,2.71,6.91-1.38,9.71,9.39,3.5,13.46-2.7,1.77-4.5,1.6-7.19-.66-1.76-1.49-2.31-2.56-2.31-4.55,0-5.57-3.16-7.76-11.18-7.76H579.9l-.78,2.81a25.34,25.34,0,0,0-.79,5.46c0,2.17.42,2.9,2.32,4a7.55,7.55,0,0,1,1.53,12.14c-2.46,2.47-4.6,3.31-8.45,3.31s-5.61-1-6.59-3.94c-1.06-3.21,0-6.88,2.83-9.89,1.87-2,2.23-3.08,2.6-7.82l.44-5.53-3.12.5c-4.81.77-8.82,2.82-19.73,10.13-5.54,3.7-11.46,7.15-13.17,7.66-2.9.87-3.2.82-4.49-.77-2.2-2.73-2.9-6.41-3.68-19.59-1.71-28.9-2.91-41.25-4.14-42.62-.12-.14-3.88,2.42-8.35,5.68-40.54,29.57-78,44-126.25,48.67-21.33,2.05-52.59.71-79-3.39-6.33-1-9-1.14-9.36-.54s-.75,10.61-1,22.57c-.62,25.42-1.83,34-5.62,39.79-3.05,4.66-19.71,4.27-49.78-1.16-2.27-.41-9.86-1-16.88-1.22-13.25-.49-18.77.18-19.61,2.38-1.46,3.8,3.34,9.28,9.89,11.27,5.52,1.69,9.76,4.52,10.94,7.31,1.79,4.25-2.32,9.25-8.25,10-2.48.33-3.29.09-4.85-1.47-2.1-2.11-3.48-6.28-3.49-10.57,0-3.44-2-6.49-5.71-8.79-2.46-1.53-3-1.59-6.66-.77-4.61,1-4.86,1.5-4.87,9.44,0,5.23.69,7.34,3.92,11.79a12.73,12.73,0,0,1,1.77,4.16c.4,2,.1,2.74-1.8,4.65s-2.82,2.28-6.37,2.28c-3,0-4.6-.42-6.05-1.56ZM610.49,342.77c-3.39-1.84-4.79-5.85-4.75-13.59,0-6.16.28-7.32,2.48-11.8,3-6.17,10.24-14,12.88-14,2.92,0,6.52,2.65,8.26,6.07,1.26,2.45,1.6,4.46,1.58,9.33q0,19.89-13.74,23.94c-4.61,1.37-4.24,1.37-6.71,0Zm-84.41-46.43a7.72,7.72,0,0,1-3.19-2.58c-1.23-2.29-1-10.39.39-13.29,1.76-3.7,6.47-7.62,12.73-10.6,9.65-4.57,17.51-4.07,21.39,1.38,1.33,1.87,1.43,2.51.7,4.71-1.18,3.57-7.73,12.7-10.78,15-6.08,4.65-16.83,7.36-21.24,5.36Z"/><path id="path2548" class="cls-2" d="M1131.34,440.57c.64.26,1.52-1.33,2.41-1.74,1.79-.81-2.87,14.09-6.81,16.31,30.28-19.81,29.35-103.87,25.48-134.91-2.2-10.33-12.86-24-13-24.54-1.48-4.11-3.56-8.62-6.66-11.74-4.7-4.74-11-8.25-16.76-11.85a210.57,210.57,0,0,0-19.62-10.74,146.57,146.57,0,0,0-19.51-8.08,150.73,150.73,0,0,0-21-4.65,108.69,108.69,0,0,0-17.28-1.33c-8.88-.21-17.77,0-26.65.22a105.26,105.26,0,0,0-22.3,2.77,46.51,46.51,0,0,0-13,4.76A51.07,51.07,0,0,0,965,263a86.47,86.47,0,0,0-10.74,11c-2.9,3.51-5.93,6.92-8.67,10.55-2.54,3.35-4.86,6.86-7.16,10.38-2,3.08-4,6.2-5.8,9.41s-3.32,6.4-4.91,9.64c-1.42,2.89-2.89,5.76-4.12,8.74-1.6,3.89-3.14,7.83-4.35,11.85a144.9,144.9,0,0,0-3.68,14.95,126.48,126.48,0,0,0-1.56,13.17,89.29,89.29,0,0,0-.33,11,138.67,138.67,0,0,0,1.45,14.06,71.35,71.35,0,0,0,2.23,10.74,136.42,136.42,0,0,0,6.35,16.94,126.49,126.49,0,0,0,8.47,15.06,111.22,111.22,0,0,0,18.29,21.48c3.29,3,6.84,5.77,10.37,8.52,2,1.57,4.11,3,6.24,4.43,2.62,1.71,5.28,3.39,8,4.87,3.46,1.87,7,3.68,10.59,5.21,4.6,1.94,9.34,3.56,14,5.2,3.42,1.2,6.87,2.38,10.37,3.32,4.6,1.24,9.25,2.39,13.93,3.21A94.34,94.34,0,0,0,1036,488c4.22.21,8.47.13,12.69-.08,5.61-.3,11.22-.84,16.82-1.45s11.42-1.23,17.06-2.21a87,87,0,0,0,10.81-2.66,59.22,59.22,0,0,0,8-3.21,74,74,0,0,0,8.58-4.76,71.72,71.72,0,0,0,7.47-5.76c2.64-2.27,5.16-4.69,7.58-7.2,2.19-2.26,4.27-4.64,6.25-7.08,2.84-3.51,9.46-18.1,11-21.79s-10.47-13.47-17.85,1.91c-6.92,14.39-7.12,14.74-9,16.78A114.07,114.07,0,0,1,1107,459a66.38,66.38,0,0,1-16,10.74c-1.6.84-3.26,1.58-4.91,2.33a46.2,46.2,0,0,1-4.34,1.88c-2.34.79-4.74,1.43-7.14,2-3.62.85-7.25,1.67-10.93,2.22s-7.64.84-11.48,1.11a102.94,102.94,0,0,1-10.81.44,110.39,110.39,0,0,1-12.94-1.33,78.54,78.54,0,0,1-8.92-2.1c-2.71-.77-5.39-1.67-8-2.66-3.87-1.45-7.75-2.91-11.49-4.65-4.32-2-8.53-4.32-12.71-6.64s-8-4.67-11.93-7.09c-4.35-2.67-8.64-5.43-12.93-8.19-2.92-1.89-5.94-3.67-8.7-5.76a37.41,37.41,0,0,1-5-4.65,65.77,65.77,0,0,1-6.69-8.31,124.71,124.71,0,0,1-7.59-13.73,90.68,90.68,0,0,1-4.12-10.52A111.54,111.54,0,0,1,927.21,393a91.41,91.41,0,0,1-1.56-9.74c-.48-4.19-.78-8.41-1-12.62-.14-2.58-.19-5.17-.11-7.75.11-3.44.26-6.89.67-10.3.6-5,1.34-10,2.34-15,.67-3.26,1.71-6.45,2.68-9.63s1.86-6.11,3-9.08c1.34-3.45,2.82-6.87,4.46-10.19a103.85,103.85,0,0,1,5.13-9.3c2-3.24,4.25-6.38,6.57-9.41,1.84-2.39,3.85-4.67,5.91-6.87,2.25-2.38,4.56-4.72,7-6.86a87.54,87.54,0,0,1,8.47-6.53,89.61,89.61,0,0,1,8.81-5.1c2.34-1.21,4.8-2.22,7.25-3.21,2.83-1.15,5.66-2.34,8.58-3.21a59,59,0,0,1,7.14-1.44c2.92-.49,5.85-1,8.8-1.22a81,81,0,0,1,9.48,0,90,90,0,0,1,9.26,1c3.55.58,7.09,1.33,10.59,2.21,2.93.75,5.82,1.69,8.69,2.66q4.72,1.59,9.37,3.43c3.49,1.39,7,2.85,10.37,4.43,4.06,1.89,8,3.94,12,6,3.78,1.94,7.49,4,11.26,6,2.49,1.3,5.15,2.34,7.51,3.84a44.67,44.67,0,0,1,6.31,4.91c27.37,22.52,26.25,47.12,30.88,80.71-1.17,27.07-9.15,50.31-14.45,76.92,2.68,3.07,6-10.06,8.65-7.1Z"/><path id="path2973" class="cls-2" d="M1249.68,285.79c.25-.65-1.36-1.5-1.78-2.39-.84-1.77-1.3-3.74-2-5.58a30.77,30.77,0,0,0-2.07-5.1c-.85-1.4-2.06-3.91-2.84-4.29-1-.47-5.14-.11-7.18.66-4.09,1.54-8.57,3.7-11.63,6.84-4.67,4.79-8.07,11.09-11.58,16.95a208.5,208.5,0,0,0-10.43,19.79,147.59,147.59,0,0,0-7.76,19.64,151.11,151.11,0,0,0-4.32,21,108.85,108.85,0,0,0-1,17.3c-.07,8.88.25,17.77.65,26.64a105.52,105.52,0,0,0,3.12,22.25,46.69,46.69,0,0,0,5,12.9,51.11,51.11,0,0,0,8.12,11.5,86.53,86.53,0,0,0,11.17,10.56c3.56,2.84,7,5.82,10.69,8.5,3.39,2.48,6.94,4.75,10.49,7,3.11,2,6.27,3.89,9.5,5.64s6.45,3.22,9.71,4.75c2.92,1.38,5.82,2.81,8.82,4,3.91,1.53,7.87,3,11.91,4.16a145.56,145.56,0,0,0,15,3.44,126.63,126.63,0,0,0,13.2,1.34,89.09,89.09,0,0,0,11,.16,138.52,138.52,0,0,0,14-1.67,72,72,0,0,0,10.7-2.4,136.89,136.89,0,0,0,16.84-6.63,125.69,125.69,0,0,0,14.92-8.71A111.17,111.17,0,0,0,1393,455.43c3-3.33,5.67-6.93,8.36-10.5,1.54-2,3-4.16,4.33-6.32,1.67-2.64,3.3-5.33,4.74-8.1,1.82-3.49,3.57-7,5-10.68,1.86-4.62,3.4-9.39,5-14.12,1.15-3.45,2.27-6.91,3.16-10.43,1.16-4.61,2.24-9.28,3-14a96.44,96.44,0,0,0,1.11-11.88,121.92,121.92,0,0,0-.29-12.68c-.38-5.61-1-11.21-1.71-16.8s-1.41-11.39-2.49-17a85.3,85.3,0,0,0-2.83-10.77,59.08,59.08,0,0,0-3.33-8,74.76,74.76,0,0,0-4.9-8.51,72.88,72.88,0,0,0-5.88-7.38c-2.31-2.6-4.78-5.08-7.32-7.46-2.29-2.15-4.71-4.19-7.18-6.13-3.56-2.79-7.42-6-11.14-7.5s-16.4,6.82-4.09,18.62c2,1.91,4.44,3.31,6.51,5.14a116,116,0,0,1,8.66,8.22,67.07,67.07,0,0,1,11,15.88c.87,1.59,1.63,3.23,2.41,4.87.67,1.43,1.42,2.83,1.95,4.32.82,2.32,1.51,4.71,2.11,7.1.9,3.6,1.78,7.23,2.39,10.89s1,7.63,1.29,11.46a103.07,103.07,0,0,1,.61,10.81c-.09,4.32,1.08,8.11.4,12.38-.45,2.82,1.61,3.12.69,10.85-.33,2.8-1.39,5-2.34,7.69-1.39,3.89-1.27,6.47-3,10.23-2,4.36-4.18,8.61-6.44,12.82s-4.54,8.06-6.89,12c-2.61,4.39-5.29,8.73-8,13.06-1.84,2.95-3.57,6-5.62,8.79a36.14,36.14,0,0,1-4.57,5.09,66.56,66.56,0,0,1-8.19,6.82,126.32,126.32,0,0,1-13.61,7.8,90.66,90.66,0,0,1-10.45,4.3,114.29,114.29,0,0,1-11,3.29,91.08,91.08,0,0,1-9.72,1.72c-4.18.55-8.39.91-12.6,1.21-2.58.18-5.17.27-7.75.23-3.44-.05-6.89-.15-10.31-.5-5-.52-10-1.18-15-2.1-3.27-.62-6.47-1.61-9.68-2.52-3.06-.88-6.13-1.76-9.12-2.87-3.48-1.28-6.91-2.71-10.26-4.29-3.2-1.51-6.35-3.16-9.38-5-3.27-2-6.45-4.15-9.52-6.43-2.42-1.8-4.73-3.77-7-5.8a94.67,94.67,0,0,1-7-6.91,78.76,78.76,0,0,1-11.9-17.09c-1.25-2.33-2.3-4.77-3.33-7.2-1.19-2.81-2.44-5.62-3.35-8.53a61.24,61.24,0,0,1-1.55-7.11,87.65,87.65,0,0,1-1.36-8.79,78.87,78.87,0,0,1-.15-9.48,84.51,84.51,0,0,1,.85-9.26c.51-3.57,1.21-7.12,2-10.63.69-2.95,1.6-5.85,2.52-8.74,1-3.16,2.1-6.31,3.28-9.42,1.33-3.51,2.73-7,4.26-10.44,1.82-4.09,3.81-8.11,5.79-12.13,1.88-3.81,3.89-7.56,5.79-11.36,1.27-2.51,2.26-5.18,3.72-7.57a44.51,44.51,0,0,1,4.81-6.39,69.2,69.2,0,0,1,5.45-5.1c1.76-1.59,3.47-3.24,5.36-4.66,2.09-1.58,4.38-2.9,6.57-4.34,1.21-.8,3.25-1.46,3.62-2.4Z"/><path id="path2987" class="cls-4" d="M730.62,61.44c-40.31-.91-33.07,10.07-32.8,10.09S697,80.24,723.73,79c5.44,0,10.88,0,16.31,0s11,0,16.53,0c5.94,0,11.87,0,17.81,0,4.65,0,9.31.09,14,.07,4.2,0,8.4,0,12.61,0h11.25c4.36,0,8.72,0,13.08-.07a139.64,139.64,0,0,1,16.87.66c6.22.93,8,6,8.16,12.42,0,4.65.42,9.51-.1,14.08-.53,5.29-.65,10.7-.7,16.08-.12,6.45-.06,12.91-.09,19.36,0,6.69,0,13.38,0,20.06q.09,12.41.07,24.8c-.17,8.66.4,17.25.68,25.88.26,8.18.34,16.4.4,24.6,0,10.11.07,20.2.4,30.29.15,8.82.84,17.54,1.26,26.32.32,7.26.94,14.44,1.2,21.72.29,7,.22,14,.23,21,0,6.33-.05,12.64,0,19s0,12.75,0,19.13,0,12.72,0,19.08c0,5.1-.05,10.22-.07,15.32s0,10.11,0,15.17a142.68,142.68,0,0,0,.89,17.72c.74,5.16.82,10.55,1.31,15.79.5,4.6.75,9.28.87,14,.65,18.86,8,14.65,8.4,14.53s9.44,3.6,10.62-22.21v-3.37c0-4.38,0-8.75-.16-13.12-.2-4.83-.58-9.6-1.08-14.35-.39-5.33-.67-10.7-1.4-15.91a141.91,141.91,0,0,1-.61-16.78c0-5.09,0-10.17,0-15.26s-.06-10.1-.09-15.16c0-6.34,0-12.7,0-19s0-12.77,0-19.15,0-12.66,0-19c0-7.12-.15-14.26-.36-21.37-.38-7.25-1-14.44-1.33-21.68-.49-8.65-1.21-17.24-1.41-25.95-.37-10-.26-20-.23-30.09,0-8.35,0-16.71-.4-25-.39-8.47-.76-16.94-.61-25.46,0-8.31,0-16.62,0-24.93.05-6.72,0-13.44,0-20.16q0-9.55.14-19.1c-2.11-21,7.53-16,23.39-15.43,7.41-.25,13.47-.55,18-.4a154.55,154.55,0,0,1,16.57,1.78c4.3.64,8.72.61,13,1.08,3.76.55,7.58.89,11.41,1.07s7.86.16,11.79.52c5,.6,9.87,1.35,14.86,1.8,3.71.34,7.46.38,11.2.43,27.42,1.77,25.83-5,25.52-4.93.2-.6,6.48-14.72-13.19-14.19-4-.39-7.8-1.11-11.84-.85A89.45,89.45,0,0,1,978,69c-1.4-.2-2.79-.49-4.21-.61-3-.25-6.06,0-9-.42-5.77-.58-11.41-1.7-17.27-1.83-8.7-.46-17.44,0-26.16-.21-8.11-.13-16.24-.25-24.28-1.08-5.58-.66-11.2-1.24-16.73-2.11-5.7-.38-11.35-1.14-17.09-1-4.26,0-8.53-.08-12.8-.07-3.76,0-7.53,0-11.29,0-4.23,0-8.45,0-12.68,0-4.74,0-9.49.05-14.23.07-5.94,0-11.87,0-17.81,0-5.48,0-11,0-16.45,0s-10.86,0-16.29,0c-6.1,0-12.21.07-18.31,0-3.58-.51-2.47.49-12.75-.38Z"/><path id="path3771" class="cls-4" d="M1480.37,257.47c-9-7.6-11.73.5-12.62,2.07-1,1.77-5.64,23.45-5.64,23.45-.41,5.58-.23,7.51-.39,13.15,0,5.85-.59,11.56-.84,17.36-.25,6.26-.28,12.55-.28,18.83-.06,7.15,0,14.26.35,21.37.47,6.86.32,13.84.73,20.7.41,5.34.66,10.73.77,16.14.07,5.2,0,10.4,0,15.59q0,6.66,0,13.31v13.1c.07,5.41.07,10.79,0,16.2,0,4.78,0,9.58,0,14.37,0,4.38,0,8.74,0,13.12-.87,16.87,7.63,17.69,8.14,17.58s11.16-.39,10-27.63V450.9c0-4.38,0-8.75,0-13.13q0-7.12,0-14.25,0-8.16,0-16.31V394.13q0-6.66,0-13.31c0-5.24-.06-10.48-.19-15.71-.14-5.54-.36-11-.86-16.47-.35-6.81-.42-13.68-.8-20.49-.26-6.27-.27-12.55-.21-18.84,15.77-3.94,26.09-11.9,42.37-14,10.77-3.28,11.9-3.48,16-3.51,3.51.2,6.48,1.85,9.33,3.77a100.7,100.7,0,0,1,9.67,6.87,83.84,83.84,0,0,1,6.4,7.29,57.44,57.44,0,0,1,5.79,7.57c2,2.46,3.51,5.31,5.42,7.87a28,28,0,0,1,4.12,7.45l9.88-12a39.33,39.33,0,0,0-5-9.1c-2-2.3-3.07-5.2-5.18-7.4a60.83,60.83,0,0,0-6.28-8.25c-2.45-2.61-4-5.77-7-8.21a92.18,92.18,0,0,0-10-7.1c-3.4-2.23-6.56-5-10.66-5.86a26.34,26.34,0,0,0-6.45-.61c-2.18,0-4.37.16-6.54.1-4.51.12-9.07.32-13.38,1.78-17.66,7-16.12,3.9-38.16,13.32.28-4.73.54-9.48.54-14.27.17-5.92.56-11.74.94-17.6Z"/></g></g></g></svg>