<svg xmlns="http://www.w3.org/2000/svg" viewBox="0 0 1500.31 515.6"><defs><style>.a{fill:#a40;}.a,.b{fill-rule:evenodd;}.b,.c{fill:#d45500;stroke:#000;}.b{stroke-miterlimit:11.34;stroke-width:14.29px;}.c{stroke-linejoin:round;stroke-width:14.25px;}</style></defs><path class="a" d="M446.79,137.16c1.38.56,3.25-2.84,5.17-3.71,3.81-1.74,8-2.66,12-4.11,3.69-1.34,7.63-2.31,11-4.27,3-1.76,8.44-4.28,9.29-5.93,1-2,.41-11-1.18-15.39C479.9,95,475.45,85.3,468.82,78.63,458.74,68.48,445.37,61,433,53.28a449.48,449.48,0,0,0-42-23C377.4,23.77,363.52,17.5,349.2,13,334.65,8.41,319.43,5.49,304.34,3,290.12.73,281.73.54,267.36.2c-19-.45-38-.09-57,.47s-29.38,2-47.72,5.92a99.28,99.28,0,0,0-27.76,10.19c-10.41,5.5-16.42,9.43-24.89,17-9.51,8.49-14.83,13.65-23,23.54-6.2,7.51-12.69,14.81-18.56,22.57C63,87.05,58,94.57,53.1,102.1c-4.32,6.6-8.55,13.27-12.41,20.14s-7.1,13.7-10.5,20.62c-3,6.19-6.21,12.35-8.83,18.72-3.42,8.32-6.73,16.74-9.31,25.35a305.87,305.87,0,0,0-7.87,32,269.09,269.09,0,0,0-3.34,28.2,193.5,193.5,0,0,0-.72,23.46,295.23,295.23,0,0,0,3.1,30.09,154.56,154.56,0,0,0,4.77,23,291.54,291.54,0,0,0,13.6,36.25,269.12,269.12,0,0,0,18.13,32.23,236.86,236.86,0,0,0,39.13,46c7,6.48,14.64,12.36,22.19,18.25,4.3,3.36,8.79,6.5,13.36,9.48,5.61,3.66,11.29,7.24,17.18,10.43,7.4,4,14.92,7.87,22.67,11.14,9.83,4.15,20,7.61,30.06,11.14,7.33,2.56,14.7,5.09,22.19,7.11,9.84,2.65,19.79,5.11,29.83,6.87a205.89,205.89,0,0,0,25.37,2.8,267.48,267.48,0,0,0,27.16-.19c12-.62,24-1.79,36-3.09,12.2-1.32,24.44-2.63,36.51-4.74a185.57,185.57,0,0,0,23.14-5.69,128.46,128.46,0,0,0,17.18-6.87A137.41,137.41,0,0,0,436,472.24c5.64-4.86,11-10.05,16.23-15.4a194.22,194.22,0,0,0,13.36-15.17c6.26-8,12.39-16.14,17.9-24.64a227.5,227.5,0,0,0,12.17-21.8,179.94,179.94,0,0,0,8.83-20.14A158.5,158.5,0,0,0,510,355c1.59-7.5,2.62-15.14,3.58-22.75s1.91-15,2.15-22.51c.32-10.41.07-20.87-.48-31.28-.48-9.18-1.37-18.38-2.62-27.49-1.21-8.82-2.93-17.59-4.77-26.3-1.65-7.8-3.53-15.56-5.73-23.22-2.9-10.11-5.82-28.09-9.54-30.09-3.24-1.75-35.84,4.44-53.69,7.11-12.29,1.84-24.51,4.19-36.75,6.4-11.79,2.13-23.64,4-35.31,6.63-12.91,3-25.7,6.47-38.42,10.19-9.72,2.84-19.3,6.17-28.87,9.48-8.24,2.85-16.43,5.88-24.58,9-3.79,1.45-8.57,6.26-11.21,4.74-4-2.27-6.11-10.57-8.59-16.11a221.15,221.15,0,0,1-8.11-21.33c-2.17-6.6-4-13.35-5.49-20.14-2-9-3.4-18.16-5-27.25-2.53-14.29-4.67-28.65-7.4-42.89-1-5.27-2.51-10.44-3.82-15.64-.36-1.43-.44-3.1-1.19-4.27a4,4,0,0,0-2.62-1.66c-2.2-.27-4.62.25-6.92.47-2.63.25-5.26.56-7.87.95-2.24.33-4.45,1.1-6.68,1.18-1.74.07-5.23-1-7-1.24-.88-.13-.13,9.76.77,14.51,1.56,8.2,3.49,16.36,5.73,24.41,1.82,6.57,4,13.05,6.44,19.43,2.76,7.29,6,14.41,9.07,21.56q4.54,10.47,9.31,20.85c3.76,8.24,7.82,16.35,11.45,24.64,3.21,7.34,6.17,14.8,9.07,22.27.69,1.77,2.86,4.49,1.67,5.45-3.51,2.83-10.4,4.26-15.75,5.92-8.33,2.6-16.81,4.8-25.29,6.87-10.29,2.51-20.7,4.49-31,6.87q-15.78,3.64-31.5,7.58c-9,2.27-18,4.61-27,7.11-3.22.9-6.43,1.88-9.54,3.08-5.08,2-10.15,4-15,6.4-5.86,2.89-11.5,6.25-17.18,9.48-3.06,1.74-8.43,3.17-9.07,5.45-.55,2,3.84,4.78,5.49,7.35s3.1,5.49,4.53,8.29c1.83,3.59,3.19,7.49,5.25,10.9a14.82,14.82,0,0,0,3.34,3.32A8.66,8.66,0,0,0,87,320.8a23.42,23.42,0,0,0,7.16.47,35.72,35.72,0,0,0,7.64-1.42,76.38,76.38,0,0,0,11.21-4A123.26,123.26,0,0,0,127.07,308c7.1-4.54,13.86-9.6,20.76-14.45,5.67-4,11-8.54,16.94-12.08,4.65-2.78,9.84-4.62,14.79-6.87,6.34-2.88,12.66-5.85,19.09-8.53,8.36-3.48,16.77-6.88,25.29-9.95,7.71-2.78,15.54-5.39,23.38-7.58,1.22-.34,3-.85,3.82,0,2.79,3,4.91,7.59,6.92,11.61a184.35,184.35,0,0,1,9.07,20.38c3.24,9.12,5.56,18.6,8.11,28,1.67,6.12,3.12,12.3,4.53,18.48,1.85,8.11,3.3,16.32,5.25,24.41,1.47,6.13,3.29,12.18,5,18.25,1.46,5.15,2.78,10.35,4.53,15.4,1.9,5.46,4.15,10.81,6.44,16.11,1.53,3.54,2.41,9.58,5,10.43s7.45-3.25,11-5.21a37.14,37.14,0,0,0,6.92-4.74A5.32,5.32,0,0,0,325.1,399a15,15,0,0,0,.72-4.27c0-1.05-.81-2-.95-3.08-.81-5.73-1-11.57-1.91-17.3-1.34-8.65-2.84-17.3-4.77-25.83-1.81-8-4-15.9-6.44-23.7s-5.43-15.76-8.59-23.46c-3-7.39-6.48-14.64-10-21.8-3.37-6.82-7.23-13.39-10.74-20.14-2.85-5.49-8.84-12.23-8.35-16.59.31-2.75,7.12-3.26,10.74-4.74,4.1-1.68,8.18-3.45,12.41-4.74,6.43-2,13-3.56,19.57-5,5.91-1.27,11.9-2.3,17.9-3.08,9.27-1.2,18.59-2.25,27.92-2.84,11.75-.75,23.54-.9,35.31-1.18,17.65-.43,35.33-.21,53-.95,10.6-.44,24.49-6,31.73-2.61,4.37,2.05,2.36,12.6,3.1,19,1.24,10.63,2.46,21.31,2.86,32a241.06,241.06,0,0,1-.72,25.35c-.39,5.87-1.21,11.72-2.15,17.54-1.37,8.49-2.69,17-4.77,25.35-2.22,8.89-5.05,17.66-8.11,26.3-3,8.42-6.28,16.78-10,24.88a190.64,190.64,0,0,1-9.54,17.54c-3.19,5.35-6.59,10.61-10.26,15.64A165.83,165.83,0,0,1,431.78,435a244.7,244.7,0,0,1-17.9,18.25,172.35,172.35,0,0,1-18.61,14.22,170.12,170.12,0,0,1-15.75,8.77c-3.43,1.8-7,3.37-10.5,5a100.57,100.57,0,0,1-9.31,4c-5,1.69-10.13,3.07-15.27,4.27-7.74,1.8-15.53,3.57-23.38,4.74-8.13,1.21-16.37,1.8-24.58,2.37-7.7.54-15.45,1.23-23.14.95a236.22,236.22,0,0,1-27.68-2.84,167.39,167.39,0,0,1-19.09-4.5c-5.8-1.63-11.53-3.57-17.18-5.69-8.27-3.1-16.58-6.22-24.58-9.95-9.26-4.32-18.27-9.24-27.2-14.22-8.64-4.82-17.1-10-25.53-15.17-9.3-5.72-18.5-11.62-27.68-17.54-6.25-4-12.7-7.84-18.61-12.32a79.62,79.62,0,0,1-10.74-9.95C70,399.78,64.85,394,60.73,387.64A271.59,271.59,0,0,1,44.5,358.26a191.73,191.73,0,0,1-8.83-22.51A240.18,240.18,0,0,1,29,312.05a198,198,0,0,1-3.34-20.85c-1-9-1.65-18-2.15-27-.3-5.52-.41-11.06-.24-16.59.23-7.35.56-14.74,1.43-22,1.28-10.71,2.86-21.43,5-32,1.42-7,3.65-13.79,5.73-20.62,2-6.53,4-13.08,6.44-19.43,2.86-7.39,6.05-14.69,9.54-21.8a221.2,221.2,0,0,1,11-19.9c4.34-6.93,9.1-13.65,14.08-20.14A192,192,0,0,1,89.12,77a204.19,204.19,0,0,1,15-14.69,191.33,191.33,0,0,1,18.13-14,190.6,190.6,0,0,1,18.85-10.9c5-2.59,10.27-4.75,15.51-6.87,6.06-2.46,12.12-5,18.37-6.87a126.62,126.62,0,0,1,15.27-3.08c6.25-1,12.54-2.19,18.85-2.61a169.4,169.4,0,0,1,20.28,0,185.15,185.15,0,0,1,19.8,2.13c7.61,1.23,15.19,2.85,22.67,4.74,6.28,1.59,12.47,3.62,18.61,5.69q10.11,3.4,20,7.35c7.47,3,14.9,6.09,22.19,9.48,8.69,4,17.24,8.42,25.77,12.8,8.09,4.15,16,8.58,24.1,12.8,5.33,2.79,11,5,16.08,8.21A95.93,95.93,0,0,1,412.18,91.7c3.9,3.6,7.23,7.84,10.74,11.85,3.33,3.81,6.81,7.53,9.78,11.61,3.31,4.53,6,9.48,9.07,14.22,1.67,2.57,3,7,5,7.78Z"/><path class="b" d="M711.07,312.88c.64.26,1.52-1.33,2.41-1.74,1.78-.81,3.76-1.24,5.61-1.92a31.7,31.7,0,0,0,5.13-2c1.41-.82,3.94-2,4.34-2.77.48-.94.19-5.14-.55-7.19-1.48-4.11-3.56-8.62-6.65-11.74-4.71-4.74-11-8.24-16.76-11.85A208.27,208.27,0,0,0,685,262.94a146.57,146.57,0,0,0-19.51-8.08,150.73,150.73,0,0,0-21-4.65,108.69,108.69,0,0,0-17.28-1.33c-8.87-.21-17.77,0-26.65.22a105.26,105.26,0,0,0-22.3,2.77,46.39,46.39,0,0,0-13,4.76,51.07,51.07,0,0,0-11.63,7.94,85.9,85.9,0,0,0-10.74,11c-2.9,3.51-5.93,6.92-8.67,10.55-2.53,3.35-4.86,6.87-7.16,10.38-2,3.08-4,6.2-5.8,9.41s-3.32,6.4-4.91,9.63c-1.42,2.89-2.9,5.77-4.13,8.75-1.6,3.89-3.14,7.82-4.35,11.85a144.9,144.9,0,0,0-3.68,14.95,123.71,123.71,0,0,0-1.56,13.18,87.25,87.25,0,0,0-.33,11,138.08,138.08,0,0,0,1.45,14.06A72.35,72.35,0,0,0,506,400,136.48,136.48,0,0,0,512.39,417,125.1,125.1,0,0,0,520.86,432a110.42,110.42,0,0,0,18.29,21.48c3.29,3,6.84,5.78,10.37,8.53,2,1.57,4.11,3,6.24,4.43,2.62,1.71,5.28,3.38,8,4.87,3.46,1.87,7,3.68,10.59,5.2,4.59,1.94,9.33,3.56,14,5.2,3.43,1.2,6.87,2.38,10.37,3.32,4.6,1.24,9.25,2.39,13.94,3.21a96.29,96.29,0,0,0,11.85,1.31,124.92,124.92,0,0,0,12.69-.09c5.62-.29,11.23-.84,16.82-1.44s11.42-1.23,17.06-2.21A87,87,0,0,0,682,483.18a60.28,60.28,0,0,0,8-3.21,64.06,64.06,0,0,0,16-10.52c2.64-2.27,5.16-4.7,7.58-7.2,2.19-2.26,4.27-4.64,6.24-7.09,2.84-3.51,6.15-7.32,7.68-11s-6.27-10.63-18.27,1.5c-1.94,2-3.38,4.38-5.24,6.42a114.08,114.08,0,0,1-8.36,8.53,79,79,0,0,1-8.7,6.64,77.63,77.63,0,0,1-7.36,4.1c-1.6.84-3.26,1.58-4.91,2.33-1.44.65-2.86,1.38-4.35,1.88-2.33.79-4.73,1.43-7.14,2-3.62.84-7.26,1.67-10.93,2.21s-7.65.84-11.48,1.11a100.3,100.3,0,0,1-10.81.44A110,110,0,0,1,617.07,480a78.54,78.54,0,0,1-8.92-2.1c-2.71-.76-5.39-1.67-8-2.66-3.87-1.45-7.75-2.91-11.48-4.65-4.33-2-8.54-4.32-12.71-6.64s-8-4.66-11.93-7.09c-4.35-2.67-8.64-5.43-12.93-8.19-2.92-1.88-5.94-3.66-8.7-5.76a36.8,36.8,0,0,1-5-4.65,67.3,67.3,0,0,1-6.69-8.3,126.31,126.31,0,0,1-7.58-13.73A90.73,90.73,0,0,1,519,405.67a112.3,112.3,0,0,1-3.12-11.07,91.41,91.41,0,0,1-1.56-9.74c-.48-4.19-.77-8.41-1-12.62-.14-2.58-.19-5.17-.11-7.75.11-3.44.26-6.89.67-10.3.6-5,1.33-10,2.34-14.95.67-3.26,1.71-6.45,2.68-9.63s1.86-6.11,3-9.08c1.34-3.45,2.82-6.86,4.46-10.19a103.85,103.85,0,0,1,5.13-9.3c2-3.24,4.25-6.38,6.58-9.41a89.72,89.72,0,0,1,5.91-6.86,94.64,94.64,0,0,1,7-6.86,78.59,78.59,0,0,1,17.28-11.62c2.34-1.21,4.8-2.22,7.25-3.21,2.83-1.15,5.66-2.35,8.58-3.21a59,59,0,0,1,7.14-1.44c2.92-.49,5.86-1,8.81-1.22a78.9,78.9,0,0,1,9.48,0,84.62,84.62,0,0,1,9.25,1c3.56.58,7.1,1.33,10.59,2.21,2.94.74,5.83,1.69,8.7,2.66q4.73,1.59,9.37,3.43c3.49,1.39,7,2.85,10.37,4.43,4.06,1.89,8.05,3.93,12,6,3.78,1.94,7.49,4,11.26,6,2.49,1.3,5.15,2.34,7.51,3.84a44.67,44.67,0,0,1,6.31,4.91,69.65,69.65,0,0,1,5,5.54c1.56,1.78,3.18,3.52,4.57,5.43,1.54,2.12,2.82,4.43,4.24,6.64.78,1.19,1.4,3.25,2.34,3.62Z"/><path class="b" d="M1037.07,440.56c.64.26,1.52-1.33,2.41-1.74,1.78-.81-2.87,14.09-6.82,16.31,30.29-19.81,29.35-103.87,25.49-134.91-2.2-10.33-12.86-24-13-24.54-1.48-4.11-3.56-8.62-6.65-11.74-4.71-4.74-11-8.24-16.76-11.85a208.27,208.27,0,0,0-19.62-10.74,146.57,146.57,0,0,0-19.51-8.08,150.73,150.73,0,0,0-21-4.65,108.69,108.69,0,0,0-17.28-1.33c-8.87-.21-17.77,0-26.65.22a105.26,105.26,0,0,0-22.3,2.77,46.39,46.39,0,0,0-13,4.76A51.07,51.07,0,0,0,870.78,263,85.9,85.9,0,0,0,860,274c-2.9,3.51-5.93,6.92-8.67,10.55-2.53,3.35-4.86,6.87-7.16,10.38-2,3.08-4,6.2-5.8,9.41s-3.32,6.4-4.91,9.63c-1.42,2.89-2.9,5.77-4.13,8.75-1.6,3.89-3.14,7.82-4.35,11.85a144.9,144.9,0,0,0-3.68,14.95,123.71,123.71,0,0,0-1.56,13.18,87.25,87.25,0,0,0-.33,11,138.08,138.08,0,0,0,1.45,14.06,72.35,72.35,0,0,0,2.23,10.74,136.48,136.48,0,0,0,6.36,16.94A125.1,125.1,0,0,0,838,430.44a110.42,110.42,0,0,0,18.29,21.48c3.29,3,6.84,5.78,10.37,8.53,2,1.57,4.11,3,6.24,4.43,2.62,1.71,5.28,3.38,8,4.87,3.46,1.87,7,3.68,10.59,5.2,4.59,1.94,9.33,3.56,14,5.2,3.43,1.2,6.87,2.38,10.37,3.32,4.6,1.24,9.25,2.39,13.94,3.21A96.29,96.29,0,0,0,941.69,488a124.92,124.92,0,0,0,12.69-.09c5.62-.29,11.23-.84,16.82-1.44s11.42-1.23,17.06-2.21a87,87,0,0,0,10.81-2.66,59.74,59.74,0,0,0,8-3.21,74.13,74.13,0,0,0,8.59-4.76,72.79,72.79,0,0,0,7.47-5.76c2.64-2.27,5.16-4.7,7.58-7.2,2.19-2.26,4.27-4.64,6.24-7.09,2.84-3.51,9.46-18.1,11-21.79s-10.47-13.46-17.86,1.91c-6.91,14.39-7.11,14.74-9,16.78a114.08,114.08,0,0,1-8.36,8.53,79,79,0,0,1-8.7,6.64,77.63,77.63,0,0,1-7.36,4.1c-1.6.84-3.26,1.58-4.91,2.33-1.44.65-2.86,1.38-4.35,1.88-2.33.79-4.73,1.43-7.14,2-3.62.84-7.26,1.67-10.93,2.21s-7.65.84-11.48,1.11a100.3,100.3,0,0,1-10.81.44,110,110,0,0,1-12.93-1.33,78.54,78.54,0,0,1-8.92-2.1c-2.71-.76-5.39-1.67-8-2.66-3.87-1.45-7.75-2.91-11.48-4.65-4.33-2-8.54-4.32-12.71-6.64s-8-4.66-11.93-7.09c-4.35-2.67-8.64-5.43-12.93-8.19-2.92-1.88-5.94-3.66-8.7-5.76a36.8,36.8,0,0,1-5-4.65,67.3,67.3,0,0,1-6.69-8.3,126.31,126.31,0,0,1-7.58-13.73,90.73,90.73,0,0,1-4.13-10.52A112.3,112.3,0,0,1,832.93,393a91.41,91.41,0,0,1-1.56-9.74c-.48-4.19-.77-8.41-1-12.62-.14-2.58-.19-5.17-.11-7.75.11-3.44.26-6.89.67-10.3.6-5,1.33-10,2.34-15,.67-3.26,1.71-6.45,2.68-9.63s1.86-6.11,3-9.08c1.34-3.45,2.82-6.86,4.46-10.19a103.85,103.85,0,0,1,5.13-9.3c2-3.24,4.25-6.38,6.58-9.41a89.72,89.72,0,0,1,5.91-6.86,94.64,94.64,0,0,1,7-6.86,78.59,78.59,0,0,1,17.28-11.62c2.34-1.21,4.8-2.22,7.25-3.21,2.83-1.15,5.66-2.35,8.58-3.21a59,59,0,0,1,7.14-1.44c2.92-.49,5.86-1,8.81-1.22a78.9,78.9,0,0,1,9.48,0,84.62,84.62,0,0,1,9.25,1c3.56.58,7.1,1.33,10.59,2.21,2.94.74,5.83,1.69,8.7,2.66q4.73,1.59,9.37,3.43c3.49,1.39,7,2.85,10.37,4.43,4.06,1.89,8,3.93,12,6,3.78,1.94,7.49,4,11.26,6,2.49,1.3,5.15,2.34,7.51,3.84a44.67,44.67,0,0,1,6.31,4.91c27.37,22.52,26.24,47.13,30.88,80.71-1.17,27.07-9.15,50.32-14.45,76.92,2.67,3.05,5.93-10.08,8.64-7.13Z"/><path class="b" d="M1155.4,285.78c.25-.65-1.35-1.5-1.77-2.39-.84-1.77-1.3-3.74-2-5.58a31.65,31.65,0,0,0-2.07-5.1c-.85-1.4-2.06-3.91-2.84-4.29-1-.47-5.14-.11-7.18.66-4.08,1.54-8.56,3.7-11.63,6.84-4.67,4.78-8.07,11.09-11.58,16.95a210.74,210.74,0,0,0-10.42,19.79,147.64,147.64,0,0,0-7.77,19.64,149.65,149.65,0,0,0-4.31,21,108.78,108.78,0,0,0-1,17.3c-.07,8.88.24,17.77.65,26.64a105,105,0,0,0,3.13,22.25,46.62,46.62,0,0,0,5,12.89,51.11,51.11,0,0,0,8.12,11.5,86.53,86.53,0,0,0,11.17,10.56c3.56,2.84,7,5.82,10.68,8.5,3.39,2.48,6.94,4.75,10.49,7,3.11,2,6.27,3.89,9.5,5.65s6.45,3.21,9.71,4.75c2.92,1.37,5.81,2.81,8.81,4a125.45,125.45,0,0,0,11.92,4.16,146,146,0,0,0,15,3.44,126.65,126.65,0,0,0,13.2,1.35,89.25,89.25,0,0,0,11,.16,138.52,138.52,0,0,0,14-1.67,72,72,0,0,0,10.7-2.4,135.32,135.32,0,0,0,16.84-6.63,125.69,125.69,0,0,0,14.92-8.71,110.68,110.68,0,0,0,21.18-18.62c3-3.34,5.67-6.93,8.36-10.5,1.54-2,3-4.16,4.33-6.31,1.67-2.65,3.3-5.33,4.74-8.1,1.81-3.49,3.56-7,5-10.67,1.87-4.62,3.41-9.39,5-14.13,1.14-3.44,2.27-6.9,3.16-10.42,1.16-4.62,2.24-9.29,3-14a98.47,98.47,0,0,0,1.12-11.87,125,125,0,0,0-.29-12.69c-.38-5.61-1-11.21-1.71-16.79s-1.41-11.4-2.49-17a87,87,0,0,0-2.83-10.77,59.13,59.13,0,0,0-3.34-8,74.76,74.76,0,0,0-4.9-8.51,72.88,72.88,0,0,0-5.88-7.38c-2.31-2.6-4.78-5.08-7.32-7.47-2.29-2.15-4.71-4.19-7.19-6.13-3.56-2.78-7.42-6-11.14-7.5s-16.4,6.82-4.08,18.62c2,1.91,4.43,3.31,6.51,5.14a116,116,0,0,1,8.66,8.22,67.07,67.07,0,0,1,11,15.88c.86,1.59,1.63,3.23,2.4,4.87a46.43,46.43,0,0,1,2,4.32c.83,2.32,1.51,4.71,2.11,7.1.9,3.6,1.79,7.23,2.39,10.89s1,7.63,1.29,11.46a102.93,102.93,0,0,1,.62,10.81c-.09,4.32,1.07,8.11.39,12.38-.45,2.82,1.61,3.12.69,10.85-.33,2.8-1.39,5-2.34,7.69-1.39,3.89-1.27,6.47-3,10.23-2,4.36-4.18,8.6-6.44,12.81s-4.54,8.06-6.89,12c-2.6,4.39-5.29,8.73-8,13.06-1.84,2.95-3.57,6-5.62,8.79a37.42,37.42,0,0,1-4.57,5.09,65.92,65.92,0,0,1-8.2,6.82,126.32,126.32,0,0,1-13.61,7.8,88.85,88.85,0,0,1-10.45,4.29,111.58,111.58,0,0,1-11,3.3,93.67,93.67,0,0,1-9.72,1.72c-4.18.55-8.4.91-12.6,1.21-2.58.18-5.17.27-7.75.24-3.44-.05-6.89-.15-10.31-.5-5-.52-10-1.17-15-2.1-3.27-.61-6.47-1.6-9.67-2.52s-6.14-1.76-9.13-2.86c-3.47-1.28-6.91-2.71-10.26-4.3a103.82,103.82,0,0,1-9.38-5c-3.27-2-6.45-4.15-9.52-6.43-2.42-1.8-4.73-3.77-7-5.8a96.83,96.83,0,0,1-7-6.91,91,91,0,0,1-6.67-8.37,88.36,88.36,0,0,1-5.23-8.73c-1.25-2.32-2.29-4.76-3.33-7.19-1.19-2.81-2.44-5.63-3.35-8.53a59.24,59.24,0,0,1-1.55-7.11c-.53-2.91-1.12-5.84-1.36-8.79a78.87,78.87,0,0,1-.15-9.48,87.23,87.23,0,0,1,.85-9.27c.52-3.57,1.22-7.12,2-10.63.69-2.95,1.6-5.85,2.52-8.74q1.52-4.75,3.28-9.42c1.33-3.51,2.73-7,4.26-10.44,1.82-4.09,3.8-8.12,5.79-12.14,1.88-3.81,3.89-7.56,5.8-11.36,1.26-2.51,2.26-5.18,3.72-7.57a44,44,0,0,1,4.81-6.39,69.58,69.58,0,0,1,5.46-5.11c1.75-1.58,3.47-3.24,5.35-4.66,2.09-1.58,4.38-2.89,6.57-4.34,1.21-.78,3.26-1.43,3.62-2.38Z"/><path class="c" d="M636.35,61.44c-40.32-.92-33.07,10.07-32.8,10.09s-.85,8.7,25.91,7.44c5.43,0,10.88,0,16.31,0s11,0,16.52,0c5.94,0,11.87,0,17.81,0,4.65,0,9.31.1,14,.07,4.2,0,8.41,0,12.61,0h11.25c4.36,0,8.72,0,13.08-.07a139.8,139.8,0,0,1,16.88.66c6.22.93,8,6,8.16,12.42.05,4.66.43,9.51-.09,14.09-.53,5.29-.65,10.7-.7,16.08-.12,6.45-.06,12.91-.09,19.36,0,6.69,0,13.37.05,20.06q.09,12.41.07,24.8c-.17,8.66.4,17.25.68,25.88.25,8.19.34,16.41.4,24.61,0,10.11.07,20.2.4,30.28.16,8.82.84,17.54,1.27,26.32.31,7.26.93,14.45,1.2,21.73.29,7,.22,14,.23,21,0,6.32-.06,12.64,0,19s0,12.75,0,19.13,0,12.72,0,19.08q0,7.67-.07,15.33c0,5.06,0,10.11,0,15.16a142.59,142.59,0,0,0,.89,17.72c.74,5.16.82,10.55,1.31,15.8.5,4.59.75,9.28.87,14,.65,18.86,8,14.64,8.4,14.52s9.44,3.6,10.62-22.21v-3.37c0-4.38,0-8.75-.16-13.13-.2-4.83-.58-9.6-1.08-14.34-.39-5.33-.67-10.71-1.41-15.91a144,144,0,0,1-.61-16.78c0-5.09,0-10.17,0-15.26s-.07-10.11-.09-15.16c0-6.34,0-12.69,0-19s0-12.76,0-19.15,0-12.66,0-19q0-10.69-.35-21.38c-.38-7.25-1-14.43-1.34-21.68-.49-8.65-1.21-17.23-1.41-26-.37-10-.26-20-.23-30.09,0-8.35,0-16.71-.4-25s-.76-16.94-.61-25.45c0-8.31,0-16.63,0-24.94.06-6.72,0-13.44.05-20.16q0-9.56.14-19.1c-2.11-21,7.52-16,23.39-15.42,7.4-.25,13.47-.55,18-.41a157.15,157.15,0,0,1,16.57,1.78c4.29.64,8.71.61,13,1.08,3.77.55,7.58.89,11.41,1.08s7.86.16,11.79.52c5,.6,9.87,1.34,14.86,1.8,3.72.34,7.46.37,11.2.42,27.42,1.78,25.83-5,25.52-4.92.2-.61,6.47-14.72-13.19-14.2-4-.39-7.8-1.11-11.84-.84a91.29,91.29,0,0,1-11.11-.7c-1.41-.2-2.8-.49-4.22-.61-3-.25-6.06,0-9-.42-5.78-.58-11.41-1.7-17.27-1.83-8.7-.46-17.44,0-26.16-.21-8.11-.13-16.24-.25-24.28-1.08-5.58-.67-11.2-1.25-16.73-2.11-5.7-.38-11.34-1.14-17.09-1-4.27,0-8.53-.08-12.8-.07h-11.3c-4.23,0-8.45,0-12.68,0-4.74,0-9.49,0-14.23.07-5.94,0-11.87,0-17.81,0-5.48,0-11,0-16.45,0s-10.86,0-16.29,0c-6.1,0-12.2.07-18.3.05-3.61-.55-2.5.46-12.78-.41Z"/><path class="c" d="M1386.1,257.46c-9-7.59-11.73.51-12.63,2.07-1,1.77-5.64,23.45-5.64,23.45-.41,5.58-.23,7.51-.39,13.15,0,5.85-.59,11.57-.84,17.37-.25,6.26-.28,12.54-.28,18.82-.06,7.16,0,14.26.35,21.37.47,6.86.32,13.84.73,20.7.41,5.34.66,10.74.77,16.15.07,5.19,0,10.39,0,15.59q0,6.66,0,13.31v13.1c.07,5.4.07,10.79,0,16.2,0,4.78,0,9.58,0,14.37q0,6.57,0,13.13c-.87,16.87,7.62,17.69,8.14,17.58s11.16-.39,10-27.64V450.9c0-4.38,0-8.75,0-13.13q0-7.12,0-14.25c0-5.44,0-10.87,0-16.31V394.13q0-6.66,0-13.31c0-5.24-.06-10.47-.19-15.7-.14-5.54-.36-11-.87-16.48-.35-6.81-.42-13.68-.8-20.48-.25-6.27-.27-12.55-.21-18.84,15.77-3.94,26.1-11.9,42.38-14,10.77-3.28,11.9-3.49,16-3.52,3.51.2,6.48,1.85,9.33,3.77a100.84,100.84,0,0,1,9.68,6.87,85.56,85.56,0,0,1,6.4,7.29,59.92,59.92,0,0,1,5.79,7.57c2,2.46,3.51,5.31,5.41,7.88a27.77,27.77,0,0,1,4.13,7.45l9.88-12a39.43,39.43,0,0,0-5-9.09c-2-2.3-3.07-5.21-5.18-7.41a61.46,61.46,0,0,0-6.28-8.25c-2.46-2.61-4-5.77-7-8.2a89.5,89.5,0,0,0-10-7.1c-3.4-2.23-6.56-5-10.66-5.86a25.35,25.35,0,0,0-6.45-.61c-2.18,0-4.37.16-6.54.09-4.51.13-9.07.32-13.38,1.78-17.65,7-16.12,3.9-38.16,13.32.28-4.73.54-9.48.54-14.27.17-5.92.56-11.74.93-17.61Z"/></svg>