<svg xmlns="http://www.w3.org/2000/svg" viewBox="0 0 627.92 513.57"><defs><style>.a{fill:#f60;}</style></defs><path class="a" d="M187.42,512.09c-2.71-2.13-2.53-4.76.65-9.7,2.23-3.46,2.62-4.7,2.57-8.22a39.75,39.75,0,0,0-1.31-8.62c-1-3.55-1.78-4.83-3.8-6.19-5-3.34-8-2.17-14.22,5.52-2.84,3.51-3.06,4.06-2.32,6,2.4,6.31-3.14,13-10.75,13-4.22,0-6.56-2.29-7.09-6.95-.63-5.6,2.53-9.94,7.94-10.88,2.71-.47,3.92-1.44,9.48-7.62,3.5-3.9,6.37-7.64,6.37-8.33,0-1.69-3.83-6.86-6.27-8.45-3.84-2.51-5.85-2.38-8.69.56-2.32,2.41-3,2.68-6.55,2.68-3.32,0-4.36-.36-6.42-2.19s-2.43-2.6-2.32-5.69a11.68,11.68,0,0,1,9.67-11.19c3.69-.79,6,.59,8.17,4.78a10.75,10.75,0,0,0,5.55,5.65c5.45,2.76,8.93,3.11,13,1.3,5.54-2.45,11-11.33,11-17.83,0-1.67-.82-3.4-2.63-5.56-3.1-3.71-3.33-6.23-.91-9.83,3-4.43,9.56-6.36,13.94-4.09,5.78,3,5,13.47-1.27,15.91l-2.89,1.13.29,6.12c.43,9.3.4,9.23,4.95,10.55,14.1,4.1,32.57,5.61,52.64,4.31,7.61-.49,14.68-1.21,15.7-1.6,8.44-3.21,5.06-25.68-8.53-56.67-4.73-10.8-7-14.06-15.2-22.22-10.39-10.3-19.56-16.67-39.55-27.46-34-18.35-63.85-32-82.17-37.56-23.07-7-28.5-8.79-36-11.85-44.4-18.08-73.59-48.34-85.12-88.23-6.73-23.3-7.12-53.45-1-80.77C8.77,112,15.78,92.9,26.05,72.65c7.22-14.2,13.28-24,29.36-47.44C73.15-.57,75-2.6,76.69,1.87,78,5.19,75.29,16.45,66.51,45c-17.63,57.24-24.43,93.17-23.35,123.7.79,22.58,5,38,14.34,52,6.13,9.27,11.58,13.8,29.18,24.09q21.45,12.57,67.64,29.17c56.45,20.28,77.81,30.58,100.75,48.62l5.53,4.35,3.09-1.65c1.7-.91,7-5.55,11.72-10.31,21.19-21.25,36.5-50.81,35-67.52-.5-5.49-.12-5-10.22-11.92-17.76-12.09-51.26-28.59-58-28.59-5.7,0-11.34,7-11.34,14,0,3.27-.35,4.25-2.19,6.17-3.39,3.54-6.41,4.23-10.51,2.42-7.71-3.41-8.51-12.48-1.51-17.27a7.12,7.12,0,0,1,5.75-1.39,8.33,8.33,0,0,0,5.59-1.08c6.42-3.82,4.89-10.28-4.52-19.12-6.18-5.8-8.37-6.65-14.87-5.75-6.21.86-7.68.36-10.29-3.47s-2.06-9.94.91-12.49c4.24-3.65,11.74-1.55,14.61,4.09,2.67,5.24,11,9.21,16.93,8.09a11.14,11.14,0,0,0,5.41-3c2.13-2.13,2.49-3,2.49-6.08q0-7.32-6.77-13c-5.39-4.54-5-8.61,1-11.36,4.34-2,6.94-1.83,9.25.48,1.69,1.69,1.87,2.32,1.4,5.06-.29,1.72-.71,4.23-.92,5.58-.53,3.27,2.69,9.86,5.67,11.62,5.07,3,11.6,1,18-5.43,3-3,3.79-4.41,4.16-7.12,1.11-8.1,4.07-11.11,9.39-9.51,4.19,1.25,6.86,4.19,6.86,7.56,0,4.61-4.19,8.58-8.26,7.83-3-.56-18.58,12.57-17.77,15,.38,1.15,8.49,1.45,15.64.59,4.56-.55,6.64-1.23,9.38-3,4.42-2.93,7.59-3,10.27-.37,3.65,3.65,3.28,9.24-.85,12.79-3.25,2.79-8.18,2-11.71-1.92a4.62,4.62,0,0,0-2.73-1.58c-2.52,0-11.62,3.16-14.78,5.13-7.58,4.73-4.16,8,13.32,12.82A245.53,245.53,0,0,1,315.08,216c22,10.39,29.29,21.69,24.54,37.81-.73,2.48-5,12.09-9.42,21.38-10.77,22.45-12.62,28.67-11.79,39.6.72,9.42,1.44,11,6,13.21,11.38,5.52,39.51,5.51,69.54,0,36.79-6.78,66-19.64,71.35-31.41,2.33-5.14,2.16-5.35-4.79-5.91-7.57-.61-17.78-3.06-22.31-5.35s-8.91-6.66-10.62-10.56c-1.89-4.27-2.88-11.8-2.9-22.1,0-22.62-3.87-41.79-9.62-48.16-3.53-3.9-7.48-5.84-11.93-5.84-3.42,0-3.72.17-6.22,3.56-3,4-5.77,4.87-9.67,2.85-5.87-3-5.23-11.71,1.07-14.34,2.66-1.11,3.37-1,8.29,1.28,2.51,1.16,3.49,1.27,5.42.59,4.7-1.64,7.4-9.45,5-14.48-1.75-3.68-4.8-5.85-6.72-4.77a11,11,0,0,1-4.48.7c-4.18-.14-6.42-2.72-6.42-7.37,0-2.88.4-3.81,2.55-6s3.14-2.55,5.56-2.55c4.44,0,7.6,4.07,6.92,8.92-.23,1.61,7.45,9,9.93,9.5a24.45,24.45,0,0,0,6.28,0l4.08-.51-.39-3.13c-.21-1.72-.59-5-.83-7.38-.4-3.84-.66-4.33-2.6-5-2.7-.94-4.53-3.68-5-7.57s.89-6.08,4.72-7.89a8,8,0,0,1,11.57,7.27,11.76,11.76,0,0,1-1.21,5c-1.13,1.92-1.11,2.53.44,9.3,1.63,7.16,1.68,7.25,3.88,7.25,3.48,0,6.23-1.86,8.17-5.51,1.53-2.88,1.65-3.64.88-5.33-1.3-2.84-1.11-6,.44-7.39a13.84,13.84,0,0,1,10.4-3.17c5.54.83,7.65,5.38,5.2,11.24-1.42,3.39-4.41,5.24-8.63,5.31-3.42.06-3.44.07-4.31,3.39-1.16,4.39-1.22,11.4-.12,13.8A5.69,5.69,0,0,0,451,189c2.64.79,3,.69,5.67-1.51,4.24-3.5,8.12-3,10.38,1.38s1,9.79-2.73,11.7c-4.1,2.12-8.07,1.08-10-2.62-.85-1.65-1.76-2.22-4-2.48-4.61-.55-5.36,0-6.69,4.54-2.16,7.44-.5,26.17,4.73,53.19,2.18,11.28,6.3,15.28,16.87,16.36,6.12.63,42.26-1.26,45.11-2.35,1.88-.72,1.57-4.35-.59-6.92a40.26,40.26,0,0,1-4.25-8.12,26.07,26.07,0,0,1-2.44-12.23c-.07-13.37,6.46-20.14,23.17-24,21.61-5,33.14-14.51,35.8-29.56s28.41-32.64,49.76-34l6.8-.43,1.57,3.66c7,16.33,9,45.56,4,57a6.93,6.93,0,0,1-4.26,4.25c-7.26,2.94-13.38,11.76-15.6,22.5-1.22,5.89-.6,9.88,3.3,21.19,2.66,7.72,3,12.52,1.09,16.5-2.59,5.46-12.3,11.43-25.83,15.89l-6.09,2-4.71,6.29a96.59,96.59,0,0,0-14,26.45c-2,6-2.49,8.86-3,17.78-.35,5.86-1,14.81-1.37,19.88-.74,9.27-1.18,21.81-1,27l.13,2.8,4.78-1.73c8.94-3.24,15.59-8,19.3-13.87,1.14-1.8,1.88-3.81,1.65-4.5s-2.26-3-4.52-5.13c-3.42-3.24-4-4.18-3.56-5.63a13.41,13.41,0,0,1,.63-1.78s1.22-1,2.59-2.06c3.11-2.52,6.06-2.59,8.65-.19,2.24,2.07,2.24,2.06,2.31,8.46,0,4.07.32,4.94,2.13,6.75s2.71,2.07,5.44,2c3.66-.08,5.76-1.47,7.62-5.07a4.13,4.13,0,0,0,.23-4.27,7.93,7.93,0,0,1,2.72-8.71c4-2.6,11.54,1.26,11.54,5.88,0,1.75-1,2.81-5.68,6.3-5.17,3.82-8.56,7.68-8.57,9.73,0,2.53,1.94,3.35,9,3.78,6.2.37,7.49.23,10-1.08,2.32-1.22,3.28-1.36,5.08-.73,2.68.94,3.69,2.63,3.69,6.23,0,5.12-3.5,9.39-7.7,9.39-1.61,0-2.42-.57-3.4-2.39-2.73-5.11-4-5.86-10.24-5.86-3.11,0-5.66.27-5.66.61A27.73,27.73,0,0,1,598.4,396c-2.3,3.82-2.44,4.38-1.58,6.41,1.1,2.62,2.55,3.32,5.6,2.71,6.91-1.38,9.71,9.39,3.5,13.46-2.7,1.77-4.5,1.6-7.2-.66-1.76-1.48-2.31-2.56-2.31-4.55,0-5.56-3.16-7.76-11.18-7.76H580l-.78,2.81a25.69,25.69,0,0,0-.79,5.46c0,2.17.42,2.9,2.32,4a7.56,7.56,0,0,1,3,10.26,7.69,7.69,0,0,1-1.47,1.89c-2.46,2.47-4.61,3.31-8.45,3.31s-5.61-1-6.59-3.94c-1.06-3.21,0-6.88,2.83-9.89,1.86-2,2.23-3.08,2.6-7.83l.43-5.53-3.12.5c-4.81.77-8.82,2.83-19.73,10.13-5.53,3.7-11.46,7.15-13.17,7.67-2.9.87-3.2.82-4.49-.78-2.2-2.72-2.9-6.4-3.68-19.59-1.72-28.9-2.92-41.25-4.14-42.62-.12-.14-3.88,2.42-8.35,5.68-40.54,29.57-78,44-126.25,48.67-21.33,2-52.59.71-79-3.39-6.33-1-9-1.14-9.35-.55s-.75,10.61-1,22.58c-.61,25.42-1.82,34-5.61,39.78-3.06,4.66-19.71,4.28-49.78-1.15-2.27-.41-9.86-1-16.88-1.22-13.26-.49-18.77.18-19.62,2.38-1.46,3.8,3.35,9.27,9.89,11.27,5.53,1.69,9.76,4.51,10.94,7.31,1.79,4.25-2.31,9.25-8.25,10-2.47.33-3.28.09-4.84-1.47-2.11-2.11-3.48-6.28-3.49-10.57,0-3.44-2-6.49-5.71-8.79-2.47-1.52-3-1.59-6.66-.77-4.62,1-4.86,1.5-4.87,9.44,0,5.23.69,7.34,3.92,11.78a12.6,12.6,0,0,1,1.78,4.16c.4,2,.1,2.74-1.81,4.65s-2.81,2.28-6.36,2.28c-3,0-4.62-.43-6.06-1.57Z"/></svg>